<svg width="80" height="80" viewBox="0 0 80 80" fill="none" xmlns="http://www.w3.org/2000/svg">
<path d="M43.125 76.125H15.625C12.8637 76.125 10.625 73.8863 10.625 71.125V28.625L35.625 3.625L60.625 28.625V36.125" stroke="#1A68CC" stroke-width="4" stroke-linecap="round" stroke-linejoin="round"/>
<path d="M35.625 33.625C38.3864 33.625 40.625 31.3864 40.625 28.625C40.625 25.8636 38.3864 23.625 35.625 23.625C32.8636 23.625 30.625 25.8636 30.625 28.625C30.625 31.3864 32.8636 33.625 35.625 33.625Z" stroke="#1A68CC" stroke-width="4" stroke-linecap="round" stroke-linejoin="round"/>
<path d="M73.2288 48.605C69.58 44.8275 63.49 45.445 60.625 49.9125C57.7575 45.44 51.6662 44.8312 48.0213 48.6037C44.8263 51.91 44.8263 57.2725 48.0213 60.5787L60.6238 73.625L73.2288 60.58C76.4238 57.2725 76.4238 51.9112 73.2288 48.605Z" stroke="#42C9B8" stroke-width="4" stroke-linecap="round" stroke-linejoin="round"/>
</svg>
