<svg width="72" height="38" viewBox="0 0 72 38" fill="none" xmlns="http://www.w3.org/2000/svg">
<g clip-path="url(#clip0_1451_21881)">
<path d="M9.9071 21.6074C10.7738 22.1046 11.7566 22.3657 12.7567 22.3646C14.3525 22.3646 15.2929 21.5601 15.2929 20.3676C15.2929 19.1751 14.6374 18.6356 13.0037 18.0393C11.028 17.3674 9.80263 16.3546 9.80263 14.7173C9.80263 12.8906 11.3699 11.5277 13.7256 11.5277C14.6515 11.4973 15.5709 11.6922 16.4042 12.0956L15.9673 13.3449C15.2649 12.9662 14.4766 12.7739 13.6781 12.7865C12.0158 12.7865 11.3794 13.733 11.3794 14.5375C11.3794 15.6259 12.1203 16.1654 13.7921 16.79C15.8438 17.5756 16.8791 18.5315 16.8791 20.254C16.8791 21.9766 15.5113 23.6329 12.6427 23.6329C11.5617 23.6451 10.4956 23.3812 9.54614 22.8662L9.9071 21.6074Z" fill="white"/>
<path d="M18.8454 11.0452H20.4222V23.4153H18.8454V11.0452Z" fill="white"/>
<path d="M23.6517 14.9824L25.5514 19.9608C25.7604 20.5192 25.9694 21.1817 26.1118 21.6833H26.1593C26.3113 21.1817 26.5013 20.5381 26.7103 19.9229L28.4295 14.9824H30.1108L27.7266 20.9829C26.6058 23.8791 25.8269 25.3555 24.7535 26.2641C24.2051 26.7261 23.5537 27.0506 22.8538 27.2106L22.4548 25.9329C22.9605 25.7734 23.4311 25.5196 23.8417 25.1852C24.3822 24.7232 24.8135 24.1479 25.105 23.5005C25.1748 23.3889 25.2171 23.2624 25.2285 23.1314C25.2219 22.996 25.1863 22.8637 25.124 22.7433L21.9324 14.9824H23.6517Z" fill="white"/>
<path d="M33.7678 13.9033H30.4908V11.6792H39.8185V13.9033H36.5034V23.4152H33.7678V13.9033Z" fill="white"/>
<path d="M41.8227 20.008C41.8987 21.1059 43.0195 21.6265 44.3018 21.6265C45.1202 21.6368 45.935 21.5154 46.7145 21.2668L47.085 23.0556C46.0672 23.431 44.988 23.6139 43.9029 23.5951C40.9203 23.5951 39.2106 21.9199 39.2106 19.2603C39.1791 18.665 39.2712 18.0697 39.4811 17.5114C39.691 16.9532 40.0142 16.4441 40.4305 16.0159C40.8468 15.5878 41.3473 15.2498 41.9006 15.0231C42.454 14.7965 43.0483 14.6859 43.6464 14.6985C46.496 14.6985 47.5694 16.8469 47.5694 18.9575C47.574 19.31 47.5421 19.662 47.4744 20.008H41.8227ZM45.0333 18.1909C45.0571 17.9743 45.0352 17.7552 44.969 17.5476C44.9028 17.3399 44.7938 17.1484 44.6488 16.9853C44.5039 16.8221 44.3263 16.691 44.1275 16.6004C43.9287 16.5097 43.7131 16.4615 43.4944 16.4589C43.0431 16.478 42.6161 16.6678 42.3003 16.9895C41.9844 17.3113 41.8035 17.7409 41.7942 18.1909H45.0333Z" fill="white"/>
<path d="M51.0649 14.8877L51.9293 16.3168C52.1858 16.7522 52.4232 17.1686 52.6417 17.5851H52.6512C52.8792 17.1213 53.0976 16.6954 53.3256 16.279L54.1045 14.8877H57.0681L54.2185 18.948L57.1441 23.4152H54.0475L53.1641 21.882C52.9172 21.4561 52.6892 21.0302 52.4802 20.5853H52.4327C52.2142 21.0491 51.9863 21.4655 51.7583 21.882L50.9319 23.4152H47.9019L50.8845 19.071L47.9778 14.8877H51.0649Z" fill="white"/>
<path d="M61.5989 12.4553V14.8877H63.5651V16.8753H61.5989V19.9607C61.5989 20.9923 61.8554 21.4656 62.6723 21.4656C62.947 21.4696 63.2212 21.441 63.4892 21.3804V23.3963C62.912 23.561 62.3131 23.6375 61.7129 23.6235C60.9554 23.6556 60.2153 23.3906 59.6517 22.8852C59.0753 22.1753 58.8054 21.2663 58.9013 20.3582V16.8753H57.733V14.8877H58.9013V13.0895L61.5989 12.4553Z" fill="white"/>
<path d="M40.1509 37.0251L39.448 35.0092C38.3272 35.0092 37.1968 35.0849 36.057 35.0849C16.8602 35.0849 1.30131 27.6931 1.30131 18.5788C1.30131 10.7611 12.6997 4.23058 28.0591 2.48911L27.3657 0.520508C11.6549 2.51752 0 9.83358 0 18.5599C0 23.6234 3.94194 28.2231 10.3156 31.5736C10.0359 32.7889 9.45458 33.9149 8.62479 34.8483L6.22162 37.981C8.2477 37.5697 10.1986 36.8516 12.0063 35.8515C13.0966 35.2012 14.1408 34.4771 15.1314 33.6842C21.8414 36.0421 28.9138 37.2113 36.0285 37.1387C37.4533 37.1576 38.7831 37.1103 40.1509 37.0251Z" fill="white"/>
<path d="M71.8955 18.5788C71.8955 8.31928 55.7478 0 35.8955 0C34.3472 0 32.8369 0.0567616 31.3456 0.151407L32.0865 2.16735C33.3594 2.1011 34.6417 2.06326 35.9525 2.06326C55.1493 2.06326 70.7082 9.45502 70.7082 18.5788C70.7082 26.3681 59.3098 32.8986 44.0549 34.6685L44.7768 36.6182C48.7856 36.1149 52.7283 35.182 56.5362 33.8356C57.4938 34.5907 58.4996 35.283 59.5472 35.9083C61.355 36.9084 63.3058 37.6266 65.3319 38.0378L62.9288 34.8578C62.1439 33.9595 61.5753 32.8945 61.2665 31.7439C67.8301 28.3935 71.8955 23.7275 71.8955 18.5788Z" fill="white"/>
</g>
<defs>
<clipPath id="clip0_1451_21881">
<rect width="72" height="38" fill="white"/>
</clipPath>
</defs>
</svg>
