<svg width="40" height="40" viewBox="0 0 40 40" fill="none" xmlns="http://www.w3.org/2000/svg">
<path d="M12.5 17.6284V38.3334" stroke="white" stroke-width="2" stroke-linecap="round" stroke-linejoin="round"/>
<path d="M27.5 17.6284V38.3334" stroke="white" stroke-width="2" stroke-linecap="round" stroke-linejoin="round"/>
<path d="M30.8334 31.6667L34.3517 25.3333C34.5357 25.002 34.6012 24.6179 34.5376 24.2444C34.474 23.8708 34.285 23.5301 34.0017 23.2783L27.9734 17.92C27.6683 17.6493 27.2745 17.4999 26.8667 17.5H13.1334C12.7259 17.499 12.3323 17.6472 12.0267 17.9167L6.00002 23.2792C5.71675 23.5309 5.52772 23.8716 5.46409 24.2452C5.40047 24.6188 5.46605 25.0029 5.65002 25.3342L9.16669 31.6667" stroke="white" stroke-width="2" stroke-linecap="round" stroke-linejoin="round"/>
<path d="M20.0001 13.3334C23.2217 13.3334 25.8334 10.7217 25.8334 7.50008C25.8334 4.27842 23.2217 1.66675 20.0001 1.66675C16.7784 1.66675 14.1667 4.27842 14.1667 7.50008C14.1667 10.7217 16.7784 13.3334 20.0001 13.3334Z" stroke="white" stroke-width="2" stroke-linecap="round" stroke-linejoin="round"/>
<path d="M20 22.5H23.3333" stroke="white" stroke-width="2" stroke-linecap="round" stroke-linejoin="round"/>
</svg>
