<svg width="80" height="80" viewBox="0 0 80 80" fill="none" xmlns="http://www.w3.org/2000/svg">
<g clip-path="url(#clip0_1450_17102)">
<path d="M24.375 48.125C26.4461 48.125 28.125 46.4461 28.125 44.375C28.125 42.3039 26.4461 40.625 24.375 40.625C22.3039 40.625 20.625 42.3039 20.625 44.375C20.625 46.4461 22.3039 48.125 24.375 48.125Z" stroke="#2974D3" stroke-width="4" stroke-linecap="round" stroke-linejoin="round"/>
<path d="M46.875 18.125C51.0171 18.125 54.375 14.7671 54.375 10.625C54.375 6.48286 51.0171 3.125 46.875 3.125C42.7329 3.125 39.375 6.48286 39.375 10.625C39.375 14.7671 42.7329 18.125 46.875 18.125Z" stroke="#42C9B8" stroke-width="4" stroke-linecap="round" stroke-linejoin="round"/>
<path d="M39.375 35.625H54.375" stroke="#2974D3" stroke-width="4" stroke-linecap="round" stroke-linejoin="round"/>
<path d="M56.875 28.1251H31.875C31.8712 28.1251 31.8688 28.1251 31.865 28.1251C25.885 17.8601 15.625 20.6251 15.625 20.6251L19.4662 32.1488C15.7575 34.8251 12.9375 38.6526 11.5625 43.1251H3.125V60.6251H13.8713C16.775 65.2626 21.4113 68.6963 26.875 70.0201V78.1251H39.375V70.6251H51.875V78.1251H64.375V69.2376C72.405 66.2038 78.125 58.4676 78.125 49.3751C78.125 37.6388 68.6112 28.1251 56.875 28.1251Z" stroke="#2974D3" stroke-width="4" stroke-linecap="round" stroke-linejoin="round"/>
</g>
<defs>
<clipPath id="clip0_1450_17102">
<rect width="80" height="80" fill="white"/>
</clipPath>
</defs>
</svg>
