<svg width="40" height="40" viewBox="0 0 40 40" fill="none" xmlns="http://www.w3.org/2000/svg">
<path d="M17.6367 32.4975C19.7442 33.5516 22.2751 34.1666 25.0001 34.1666C25.9826 34.1666 26.9384 34.0816 27.8601 33.93L35.0001 37.5V30.7658C37.0684 29.0041 38.3334 26.6983 38.3334 24.1666C38.3334 23.3016 38.1867 22.465 37.9117 21.6675" stroke="white" stroke-width="2" stroke-linecap="round" stroke-linejoin="round"/>
<path d="M18.3334 1.66675C9.12841 1.66675 1.66675 7.63591 1.66675 15.0001C1.66675 17.9951 2.91591 20.7501 5.00008 22.9759V31.6667L13.0542 27.6392C14.7151 28.0834 16.4859 28.3334 18.3334 28.3334C27.5384 28.3334 35.0001 22.3642 35.0001 15.0001C35.0001 7.63591 27.5384 1.66675 18.3334 1.66675Z" stroke="white" stroke-width="2" stroke-linecap="round" stroke-linejoin="round"/>
</svg>
