<svg width="80" height="80" viewBox="0 0 80 80" fill="none" xmlns="http://www.w3.org/2000/svg">
<path d="M16.6668 30C24.0306 30 30.0002 24.0304 30.0002 16.6666C30.0002 9.30285 24.0306 3.33331 16.6668 3.33331C9.30303 3.33331 3.3335 9.30285 3.3335 16.6666C3.3335 24.0304 9.30303 30 16.6668 30Z" stroke="#2974D3" stroke-width="4" stroke-linecap="round" stroke-linejoin="round"/>
<path d="M63.3333 76.6667C70.6971 76.6667 76.6667 70.6971 76.6667 63.3333C76.6667 55.9695 70.6971 50 63.3333 50C55.9695 50 50 55.9695 50 63.3333C50 70.6971 55.9695 76.6667 63.3333 76.6667Z" stroke="#2974D3" stroke-width="4" stroke-linecap="round" stroke-linejoin="round"/>
<path d="M43.3335 16.6666H56.6668C64.0302 16.6666 70.0002 22.6366 70.0002 30V36.6666" stroke="#42C9B8" stroke-width="4" stroke-linecap="round" stroke-linejoin="round"/>
<path d="M36.6667 63.3333H23.3333C15.97 63.3333 10 57.3633 10 50V43.3333" stroke="#42C9B8" stroke-width="4" stroke-linecap="round" stroke-linejoin="round"/>
<path d="M53.3335 6.66663L43.3335 16.6666L53.3335 26.6666" stroke="#42C9B8" stroke-width="4" stroke-linecap="round" stroke-linejoin="round"/>
<path d="M26.667 53.3333L36.667 63.3333L26.667 73.3333" stroke="#42C9B8" stroke-width="4" stroke-linecap="round" stroke-linejoin="round"/>
</svg>
