<svg width="40" height="40" viewBox="0 0 40 40" fill="none" xmlns="http://www.w3.org/2000/svg">
<path d="M29.1667 38.3335C33.3089 38.3335 36.6667 34.9756 36.6667 30.8335C36.6667 26.6914 33.3089 23.3335 29.1667 23.3335C25.0246 23.3335 21.6667 26.6914 21.6667 30.8335C21.6667 34.9756 25.0246 38.3335 29.1667 38.3335Z" stroke="white" stroke-width="2" stroke-linecap="round" stroke-linejoin="round"/>
<path d="M29.1667 28.3335V33.3335" stroke="white" stroke-width="2" stroke-linecap="round" stroke-linejoin="round"/>
<path d="M26.6667 30.8335H31.6667" stroke="white" stroke-width="2" stroke-linecap="round" stroke-linejoin="round"/>
<path d="M37.5 13.3335H2.5" stroke="white" stroke-width="2" stroke-linecap="round" stroke-linejoin="round"/>
<path d="M17.5 35H5C4.33696 35 3.70107 34.7366 3.23223 34.2678C2.76339 33.7989 2.5 33.163 2.5 32.5V7.5C2.5 6.83696 2.76339 6.20107 3.23223 5.73223C3.70107 5.26339 4.33696 5 5 5H35C35.663 5 36.2989 5.26339 36.7678 5.73223C37.2366 6.20107 37.5 6.83696 37.5 7.5V20.8433" stroke="white" stroke-width="2" stroke-linecap="round" stroke-linejoin="round"/>
<path d="M10.8333 1.66675V8.33341" stroke="white" stroke-width="2" stroke-linecap="round" stroke-linejoin="round"/>
<path d="M29.1667 1.66675V8.33341" stroke="white" stroke-width="2" stroke-linecap="round" stroke-linejoin="round"/>
</svg>
