<svg width="24" height="24" viewBox="0 0 24 24" fill="none" xmlns="http://www.w3.org/2000/svg">
<path fill-rule="evenodd" clip-rule="evenodd" d="M5 0C2.23858 0 0 2.23858 0 5V19C0 21.7614 2.23858 24 5 24H9.04688V15.4688H6V12H9.04688V9.35625C9.04688 6.34922 10.8375 4.6875 13.5797 4.6875C14.8922 4.6875 16.2656 4.92188 16.2656 4.92188V7.875H14.7516C13.2609 7.875 12.7969 8.80078 12.7969 9.75V12H16.125L15.593 15.4688H12.7969V24H19C21.7614 24 24 21.7614 24 19V5C24 2.23858 21.7614 0 19 0H5Z" fill="#F2F8FF"/>
</svg>
