<svg width="206" height="49" viewBox="0 0 206 49" fill="none" xmlns="http://www.w3.org/2000/svg">
<path d="M19.0882 22.6195L0.174561 42.9609C0.174561 42.9646 0.178274 42.9684 0.178274 42.9722C0.757606 45.1809 2.74813 46.8064 5.11373 46.8064C6.057 46.8064 6.94457 46.5468 7.70587 46.0952L7.76529 46.0576L29.0557 33.6105L19.0882 22.6195Z" fill="#D8432B"/>
<path d="M38.221 19.1578L38.2025 19.1465L29.0112 13.747L18.6575 23.0823L29.0483 33.6105L38.1913 28.2636C39.7956 27.3869 40.8837 25.6749 40.8837 23.6994C40.8837 21.739 39.8105 20.0383 38.221 19.1578Z" fill="#FBC81D"/>
<path d="M0.174541 4.35888C0.0594179 4.78407 0 5.22807 0 5.69089V41.6288C0 42.0916 0.0594179 42.5356 0.174541 42.9608L19.7381 23.1425L0.174541 4.35888Z" fill="#3371C1"/>
<path d="M19.2293 23.658L29.0185 13.7431L7.7541 1.25085C6.98165 0.780508 6.07923 0.509592 5.11368 0.509592C2.75179 0.509592 0.757554 2.13886 0.178223 4.35135V4.35511L19.2293 23.658Z" fill="#32A472"/>
<path d="M66.5228 6.09741C66.5228 7.60626 66.0809 8.80657 65.2008 9.70211C64.1981 10.767 62.8909 11.3013 61.2866 11.3013C59.7491 11.3013 58.4382 10.7632 57.365 9.67953C56.288 8.59962 55.7495 7.26009 55.7495 5.66092C55.7495 4.06176 56.288 2.72223 57.365 1.64232C58.4419 0.562417 59.7491 0.0205841 61.2866 0.0205841C62.0516 0.0205841 62.7795 0.171093 63.4739 0.472113C64.1684 0.773131 64.7254 1.17574 65.1414 1.67995L64.2055 2.62816C63.4999 1.77402 62.5269 1.34507 61.2866 1.34507C60.1651 1.34507 59.1958 1.74392 58.3751 2.54538C57.5544 3.34684 57.1458 4.38159 57.1458 5.66092C57.1458 6.93649 57.5544 7.97501 58.3751 8.77647C59.1958 9.57794 60.1651 9.97679 61.2866 9.97679C62.4787 9.97679 63.4702 9.57418 64.2649 8.76895C64.7811 8.24593 65.0782 7.51595 65.1599 6.5828H61.2903V5.28465H66.456C66.4969 5.56309 66.5228 5.83401 66.5228 6.09741Z" fill="white"/>
<path d="M74.7115 1.58573H69.8577V5.00982H74.2324V6.30797H69.854V9.73206H74.7077V11.0603H68.4836V0.261243H74.7077V1.58573" fill="white"/>
<path d="M80.4861 11.0565H79.1158V1.58571H76.1375V0.257459H83.4608V1.58571H80.4824L80.4861 11.0565Z" fill="white"/>
<path d="M88.7639 11.0565V0.257459H90.1343V11.0565H88.7639Z" fill="white"/>
<path d="M96.2061 11.0565H94.8358V1.58571H91.8574V0.257459H99.1808V1.58571H96.2024L96.2061 11.0565Z" fill="white"/>
<path d="M106.244 8.75766C107.035 9.56665 107.997 9.97303 109.141 9.97303C110.281 9.97303 111.25 9.57041 112.037 8.75766C112.828 7.94867 113.222 6.91392 113.222 5.65716C113.222 4.40041 112.825 3.36565 112.037 2.55667C111.25 1.74768 110.285 1.3413 109.141 1.3413C108.001 1.3413 107.035 1.74391 106.244 2.55667C105.457 3.36565 105.059 4.40041 105.059 5.65716C105.059 6.91392 105.457 7.94867 106.244 8.75766ZM113.051 9.66448C112.004 10.7557 110.7 11.3013 109.141 11.3013C107.585 11.3013 106.281 10.7557 105.234 9.66448C104.187 8.57328 103.663 7.23751 103.663 5.66092C103.663 4.08434 104.187 2.74857 105.234 1.65737C106.281 0.56618 107.585 0.0205841 109.141 0.0205841C110.689 0.0205841 111.989 0.569942 113.044 1.6649C114.095 2.75986 114.622 4.09186 114.622 5.66092C114.618 7.23751 114.095 8.57328 113.051 9.66448Z" fill="white"/>
<path d="M116.542 11.0565V0.257483H118.21L123.39 8.65968H123.45L123.39 6.57888V0.261245H124.761V11.0603H123.331L117.913 2.25173H117.853L117.913 4.33253V11.0603L116.542 11.0565Z" fill="white"/>
<path d="M172.254 41.6589H175.567V19.1577H172.254V41.6589ZM202.112 27.2627L198.31 37.0157H198.194L194.25 27.2589H190.678L196.598 40.8951L193.226 48.4807H196.683L205.796 27.2627H202.112ZM183.31 39.1002C182.226 39.1002 180.71 38.5509 180.71 37.1888C180.71 35.4504 182.597 34.7844 184.224 34.7844C185.679 34.7844 186.366 35.1042 187.25 35.5369C186.998 37.6252 185.226 39.1002 183.31 39.1002ZM183.711 26.7697C181.312 26.7697 178.824 27.8421 177.795 30.2164L180.74 31.4619C181.368 30.2164 182.541 29.8138 183.767 29.8138C185.483 29.8138 187.224 30.8561 187.254 32.7073V32.9406C186.652 32.5945 185.367 32.0714 183.797 32.0714C180.625 32.0714 177.398 33.8362 177.398 37.1361C177.398 40.1463 179.997 42.0878 182.913 42.0878C185.141 42.0878 186.37 41.0757 187.143 39.8866H187.258V41.625H190.459V32.9971C190.455 28.9973 187.51 26.7697 183.711 26.7697ZM163.227 30.0019H158.514V22.2883H163.227C165.704 22.2883 167.111 24.3691 167.111 26.1451C167.111 27.8873 165.704 30.0019 163.227 30.0019ZM163.141 19.154H155.198V41.6551H158.514V33.1288H163.141C166.818 33.1288 170.427 30.4346 170.427 26.1414C170.427 21.8481 166.814 19.154 163.141 19.154ZM119.829 39.1078C117.541 39.1078 115.621 37.1662 115.621 34.4984C115.621 31.8005 117.537 29.8288 119.829 29.8288C122.09 29.8288 123.865 31.8005 123.865 34.4984C123.862 37.1624 122.087 39.1078 119.829 39.1078ZM123.635 28.5232H123.52C122.777 27.6239 121.344 26.8111 119.543 26.8111C115.766 26.8111 112.301 30.175 112.301 34.4946C112.301 38.7879 115.766 42.1217 119.543 42.1217C121.348 42.1217 122.777 41.309 123.52 40.3833H123.635V41.4858C123.635 44.4132 122.09 45.9823 119.598 45.9823C117.567 45.9823 116.308 44.5035 115.792 43.2581L112.903 44.4772C113.735 46.5053 115.937 49 119.598 49C123.49 49 126.781 46.6822 126.781 41.0268V27.2815H123.631V28.5232H123.635ZM129.072 41.6589H132.392V19.1577H129.072V41.6589ZM137.287 34.235C137.201 31.2775 139.548 29.7686 141.238 29.7686C142.556 29.7686 143.67 30.4346 144.042 31.3941L137.287 34.235ZM147.588 31.6839C146.957 29.9718 145.041 26.8111 141.119 26.8111C137.227 26.8111 133.993 29.9154 133.993 34.4645C133.993 38.7578 137.197 42.1217 141.49 42.1217C144.955 42.1217 146.957 39.977 147.785 38.7277L145.208 36.9893C144.35 38.2649 143.176 39.1078 141.487 39.1078C139.797 39.1078 138.598 38.3251 137.825 36.7862L147.926 32.5531L147.588 31.6839ZM67.0984 29.1591V32.4063H74.7671C74.5368 34.2313 73.9389 35.567 73.0217 36.4964C71.9039 37.629 70.1584 38.8745 67.0984 38.8745C62.3746 38.8745 58.6832 35.0177 58.6832 30.2352C58.6832 25.449 62.3746 21.5922 67.0984 21.5922C69.646 21.5922 71.5065 22.6082 72.8806 23.9138L75.1422 21.6223C73.2259 19.7673 70.6784 18.345 67.0984 18.345C60.6292 18.345 55.1924 23.6805 55.1924 30.2352C55.1924 36.7899 60.6292 42.1255 67.0984 42.1255C70.5892 42.1255 73.2222 40.9666 75.2833 38.7917C77.4001 36.6469 78.0611 33.6292 78.0611 31.1947C78.0611 30.4422 78.0054 29.7461 77.8903 29.1666H67.0984V29.1591ZM86.7808 39.1078C84.4895 39.1078 82.5175 37.1925 82.5175 34.4683C82.5175 31.714 84.4932 29.8288 86.7808 29.8288C89.0684 29.8288 91.0441 31.714 91.0441 34.4683C91.0441 37.1925 89.0721 39.1078 86.7808 39.1078ZM86.7808 26.8111C82.6029 26.8111 79.1975 30.0283 79.1975 34.4645C79.1975 38.8707 82.6029 42.1217 86.7808 42.1217C90.9587 42.1217 94.3641 38.8745 94.3641 34.4645C94.3641 30.0283 90.9587 26.8111 86.7808 26.8111ZM103.325 39.1078C101.034 39.1078 99.0619 37.1925 99.0619 34.4683C99.0619 31.714 101.038 29.8288 103.325 29.8288C105.613 29.8288 107.588 31.714 107.588 34.4683C107.588 37.1925 105.616 39.1078 103.325 39.1078ZM103.325 26.8111C99.1473 26.8111 95.7419 30.0283 95.7419 34.4645C95.7419 38.8707 99.1473 42.1217 103.325 42.1217C107.503 42.1217 110.908 38.8745 110.908 34.4645C110.908 30.0283 107.503 26.8111 103.325 26.8111Z" fill="white"/>
</svg>
