<svg width="40" height="40" viewBox="0 0 40 40" fill="none" xmlns="http://www.w3.org/2000/svg">
<g clip-path="url(#clip0_1763_18579)">
<path d="M20.0001 25.8332C23.2217 25.8332 25.8334 23.2215 25.8334 19.9998C25.8334 16.7782 23.2217 14.1665 20.0001 14.1665C16.7784 14.1665 14.1667 16.7782 14.1667 19.9998C14.1667 23.2215 16.7784 25.8332 20.0001 25.8332Z" stroke="white" stroke-width="2" stroke-linecap="round" stroke-linejoin="round"/>
<path d="M38.3334 19.9998C38.3335 19.3183 38.0773 18.6616 37.6157 18.16C37.1542 17.6585 36.521 17.3488 35.8417 17.2923L33.0001 17.0548C32.6662 15.58 32.0822 14.1733 31.2734 12.8957L33.1209 10.7123C33.5612 10.1922 33.7898 9.52555 33.7616 8.84468C33.7333 8.16381 33.4502 7.51842 32.9684 7.0365V7.0365C32.4865 6.55469 31.8411 6.27158 31.1602 6.24334C30.4794 6.21509 29.8127 6.44376 29.2926 6.884L27.1092 8.7315C25.8305 7.92021 24.422 7.33448 22.9451 6.99984L22.7076 4.15817C22.6511 3.47893 22.3414 2.84572 21.8399 2.38417C21.3384 1.92263 20.6817 1.66646 20.0001 1.6665V1.6665C19.3185 1.66646 18.6618 1.92263 18.1603 2.38417C17.6587 2.84572 17.349 3.47893 17.2926 4.15817L17.0551 6.99984C15.5803 7.33369 14.1735 7.91769 12.8959 8.7265L10.7126 6.88317C10.1924 6.44293 9.52579 6.21425 8.84492 6.2425C8.16405 6.27075 7.51866 6.55385 7.03675 7.03567V7.03567C6.55493 7.51758 6.27183 8.16297 6.24358 8.84384C6.21533 9.52472 6.44401 10.1913 6.88425 10.7115L8.73175 12.8948C7.92089 14.1723 7.33518 15.5794 7.00008 17.0548L4.15425 17.2923C3.47575 17.3498 2.84357 17.6599 2.38288 18.1613C1.9222 18.6628 1.66662 19.3189 1.66675 19.9998V19.9998C1.66671 20.6814 1.92287 21.3381 2.38442 21.8396C2.84597 22.3412 3.47917 22.6509 4.15841 22.7073L7.00425 22.9448C7.33811 24.4196 7.9221 25.8264 8.73092 27.104L6.88342 29.2873C6.44317 29.8075 6.2145 30.4741 6.24275 31.155C6.27099 31.8359 6.5541 32.4813 7.03591 32.9632V32.9632C7.51783 33.445 8.16322 33.7281 8.84409 33.7563C9.52496 33.7846 10.1916 33.5559 10.7117 33.1157L12.8951 31.2682C14.1725 32.079 15.5796 32.6647 17.0551 32.9998L17.2926 35.8457C17.35 36.5242 17.6602 37.1564 18.1616 37.617C18.663 38.0777 19.3192 38.3333 20.0001 38.3332C20.6817 38.3332 21.3384 38.0771 21.8399 37.6155C22.3414 37.154 22.6511 36.5207 22.7076 35.8415L22.9451 32.9957C24.4199 32.6618 25.8266 32.0778 27.1043 31.269L29.2876 33.1165C29.8077 33.5567 30.4744 33.7854 31.1552 33.7572C31.8361 33.7289 32.4815 33.4458 32.9634 32.964C33.4452 32.4821 33.7283 31.8367 33.7566 31.1558C33.7848 30.475 33.5562 29.8083 33.1159 29.2882L31.2684 27.1048C32.0793 25.8274 32.665 24.4203 33.0001 22.9448L35.8459 22.7073C36.5244 22.6499 37.1566 22.3398 37.6173 21.8383C38.078 21.3369 38.3335 20.6808 38.3334 19.9998Z" stroke="white" stroke-width="2" stroke-linecap="round" stroke-linejoin="round"/>
</g>
<defs>
<clipPath id="clip0_1763_18579">
<rect width="40" height="40" fill="white"/>
</clipPath>
</defs>
</svg>
