<svg width="40" height="40" viewBox="0 0 40 40" fill="none" xmlns="http://www.w3.org/2000/svg">
<path d="M31.6575 26.5368C31.8771 26.7561 32.1389 26.9285 32.4271 27.0436C32.7153 27.1587 33.0239 27.214 33.3341 27.2062C33.6444 27.1984 33.9498 27.1277 34.2319 26.9983C34.5139 26.8689 34.7668 26.6835 34.975 26.4534V26.4534C35.3658 26.0217 35.5775 25.4575 35.5671 24.8753C35.5567 24.2931 35.325 23.7367 34.9192 23.3193L26.5725 14.7584" stroke="white" stroke-width="2" stroke-linecap="round" stroke-linejoin="round"/>
<path d="M23.3284 31.5709L24.4067 32.6493C24.6253 32.8678 24.7986 33.1272 24.9169 33.4128C25.0352 33.6983 25.0961 34.0044 25.0961 34.3134C25.0961 34.6225 25.0352 34.9285 24.9169 35.2141C24.7986 35.4996 24.6253 35.7591 24.4067 35.9776V35.9776C24.1103 36.2747 23.7397 36.4868 23.3334 36.5918" stroke="white" stroke-width="2" stroke-linecap="round" stroke-linejoin="round"/>
<path d="M30.0093 24.8884L32.3068 27.1868C32.527 27.4068 32.7016 27.668 32.8208 27.9556C32.9399 28.2431 33.0013 28.5513 33.0013 28.8626C33.0013 29.1739 32.9399 29.4821 32.8208 29.7696C32.7016 30.0572 32.527 30.3184 32.3068 30.5384C32.0868 30.7586 31.8255 30.9333 31.538 31.0524C31.2504 31.1716 30.9422 31.2329 30.6309 31.2329C30.3197 31.2329 30.0115 31.1716 29.7239 31.0524C29.4364 30.9333 29.1751 30.7586 28.9551 30.5384L26.6584 28.2409" stroke="white" stroke-width="2" stroke-linecap="round" stroke-linejoin="round"/>
<path d="M28.5 30.0834C28.7185 30.3019 28.8919 30.5613 29.0102 30.8469C29.1285 31.1324 29.1893 31.4385 29.1893 31.7475C29.1893 32.0566 29.1285 32.3627 29.0102 32.6482C28.8919 32.9337 28.7185 33.1932 28.5 33.4117V33.4117C28.0584 33.8527 27.4599 34.1004 26.8358 34.1004C26.2117 34.1004 25.6132 33.8527 25.1716 33.4117" stroke="white" stroke-width="2" stroke-linecap="round" stroke-linejoin="round"/>
<path d="M8.09243 26.0266L7.47076 26.6483C6.54522 27.5738 6.54522 29.0744 7.47077 29.9999C8.39631 30.9255 9.89691 30.9255 10.8225 29.9999L11.4441 29.3783C12.3697 28.4527 12.3697 26.9521 11.4441 26.0266C10.5186 25.101 9.01797 25.101 8.09243 26.0266Z" stroke="white" stroke-width="2" stroke-linecap="round" stroke-linejoin="round"/>
<path d="M15.1487 32.3312L14.831 32.6488C13.912 33.5678 13.912 35.0579 14.8311 35.9769C15.7501 36.896 17.2401 36.896 18.1592 35.9769L18.4768 35.6593C19.3958 34.7403 19.3958 33.2502 18.4768 32.3312C17.5577 31.4122 16.0677 31.4122 15.1487 32.3312Z" stroke="white" stroke-width="2" stroke-linecap="round" stroke-linejoin="round"/>
<path d="M8.08324 26.0358L7.73324 26.3858C7.51369 26.6052 7.25187 26.7776 6.96366 26.8927C6.67545 27.0078 6.36686 27.0631 6.05662 27.0553C5.74638 27.0475 5.44096 26.9768 5.15889 26.8473C4.87683 26.7179 4.62399 26.5326 4.41574 26.3025V26.3025C4.02447 25.8708 3.8123 25.3064 3.82236 24.7239C3.83243 24.1413 4.06397 23.5845 4.4699 23.1667L4.8199 22.8083C5.24216 22.3768 5.81745 22.129 6.42111 22.1187C7.02477 22.1084 7.60818 22.3364 8.0449 22.7533C8.26621 22.9644 8.44306 23.2177 8.56507 23.4982C8.68707 23.7786 8.75177 24.0807 8.75534 24.3865C8.75891 24.6923 8.70129 24.9958 8.58587 25.279C8.47044 25.5623 8.29955 25.8196 8.08324 26.0358V26.0358Z" stroke="white" stroke-width="2" stroke-linecap="round" stroke-linejoin="round"/>
<path d="M34.9999 18.3334V15.5209L37.4999 12.9775L28.7982 4.27588L27.2416 5.83338H23.3332C21.388 5.83295 19.5211 6.59949 18.1374 7.96671L12.5832 13.7425C12.2313 14.1076 12.027 14.59 12.0095 15.0968C11.9921 15.6036 12.1627 16.0989 12.4887 16.4874C12.8146 16.8758 13.2728 17.1299 13.7749 17.2007C14.277 17.2715 14.7876 17.154 15.2082 16.8709L21.1249 13.0584C21.6354 13.6375 22.2647 14.0999 22.97 14.414C23.6752 14.7281 24.4399 14.8866 25.2119 14.8786C25.9839 14.8707 26.7451 14.6966 27.4438 14.3681C28.1425 14.0396 28.7622 13.5645 29.2607 12.975" stroke="white" stroke-width="2" stroke-linecap="round" stroke-linejoin="round"/>
<path d="M5 18.3334V15.5209L2.5 12.9775L11.2017 4.27588L12.7583 5.83338H15.8333" stroke="white" stroke-width="2" stroke-linecap="round" stroke-linejoin="round"/>
<path d="M11.4577 29.3664L11.2815 29.5426C10.3625 30.4616 10.3625 31.9517 11.2815 32.8707C12.2005 33.7898 13.6906 33.7898 14.6096 32.8707L14.7858 32.6945C15.7048 31.7755 15.7048 30.2855 14.7858 29.3664C13.8668 28.4474 12.3767 28.4474 11.4577 29.3664Z" stroke="white" stroke-width="2" stroke-linecap="round" stroke-linejoin="round"/>
</svg>
