<svg width="480" height="480" viewBox="0 0 480 480" fill="none" xmlns="http://www.w3.org/2000/svg">
<rect width="480" height="480" rx="20" fill="#F2F8FF"/>
<path fill-rule="evenodd" clip-rule="evenodd" d="M479.746 360C479.746 360 479.746 360 479.745 360C412.675 360 358.272 413.68 358 480H479.746V360Z" fill="#3E82D7"/>
<g filter="url(#filter0_d_1450_17162)">
<rect x="69" y="25" width="342" height="430" rx="20" fill="white" shape-rendering="crispEdges"/>
<g clip-path="url(#clip0_1450_17162)">
<path d="M91.656 49.72V58.104C91.656 59.032 91.3893 59.768 90.856 60.312C90.3333 60.8453 89.5973 61.112 88.648 61.112C87.624 61.112 86.8187 60.8133 86.232 60.216C85.656 59.608 85.368 58.76 85.368 57.672H86.824C86.824 58.3227 86.968 58.84 87.256 59.224C87.544 59.5973 87.9867 59.784 88.584 59.784C89.1493 59.784 89.56 59.624 89.816 59.304C90.072 58.984 90.2 58.584 90.2 58.104V49.72H91.656ZM97.518 52.104C98.3713 52.104 99.0913 52.3173 99.678 52.744C100.275 53.1707 100.691 53.7413 100.926 54.456V52.216H102.382V61H100.926V58.76C100.691 59.4747 100.275 60.0453 99.678 60.472C99.0913 60.8987 98.3713 61.112 97.518 61.112C96.7393 61.112 96.046 60.9307 95.438 60.568C94.83 60.2053 94.35 59.688 93.998 59.016C93.6567 58.3333 93.486 57.5333 93.486 56.616C93.486 55.6987 93.6567 54.8987 93.998 54.216C94.35 53.5333 94.83 53.0107 95.438 52.648C96.046 52.2853 96.7393 52.104 97.518 52.104ZM97.934 53.4C97.038 53.4 96.318 53.688 95.774 54.264C95.2407 54.8293 94.974 55.6133 94.974 56.616C94.974 57.6187 95.2407 58.408 95.774 58.984C96.318 59.5493 97.038 59.832 97.934 59.832C98.51 59.832 99.022 59.6987 99.47 59.432C99.9287 59.1653 100.286 58.792 100.542 58.312C100.798 57.8213 100.926 57.256 100.926 56.616C100.926 55.976 100.798 55.4107 100.542 54.92C100.286 54.4293 99.9287 54.056 99.47 53.8C99.022 53.5333 98.51 53.4 97.934 53.4ZM109.323 52.072C110.347 52.072 111.174 52.4027 111.803 53.064C112.433 53.7147 112.747 54.6587 112.747 55.896V61H111.291V56.024C111.291 55.1493 111.067 54.4773 110.619 54.008C110.171 53.5387 109.563 53.304 108.795 53.304C107.995 53.304 107.355 53.5653 106.875 54.088C106.395 54.6 106.155 55.352 106.155 56.344V61H104.699V52.216H106.155V54.296C106.379 53.5813 106.774 53.032 107.339 52.648C107.915 52.264 108.577 52.072 109.323 52.072ZM118.438 59.88C120.251 58.664 121.702 57.4587 122.79 56.264C123.878 55.0587 124.422 53.9387 124.422 52.904C124.422 52.264 124.256 51.752 123.926 51.368C123.606 50.9733 123.083 50.776 122.358 50.776C121.611 50.776 121.046 51.016 120.662 51.496C120.278 51.9653 120.064 52.616 120.022 53.448H118.582C118.656 52.1893 119.046 51.224 119.75 50.552C120.454 49.8693 121.36 49.528 122.47 49.528C123.526 49.528 124.363 49.8107 124.982 50.376C125.6 50.9413 125.91 51.7413 125.91 52.776C125.91 53.6293 125.632 54.4987 125.078 55.384C124.534 56.2587 123.846 57.0747 123.014 57.832C122.192 58.5787 121.344 59.2133 120.47 59.736H126.198V60.936H118.438V59.88ZM127.756 55.288C127.756 57.1013 128.054 58.5147 128.652 59.528C129.249 60.5413 130.284 61.048 131.756 61.048C133.228 61.048 134.262 60.5413 134.86 59.528C135.468 58.5147 135.772 57.1013 135.772 55.288C135.772 53.496 135.468 52.0933 134.86 51.08C134.262 50.0667 133.228 49.56 131.756 49.56C130.284 49.56 129.249 50.0667 128.652 51.08C128.054 52.0827 127.756 53.4853 127.756 55.288ZM134.332 55.288C134.332 56.216 134.262 56.9947 134.124 57.624C133.996 58.2427 133.745 58.7387 133.372 59.112C132.998 59.4853 132.46 59.672 131.756 59.672C131.062 59.672 130.529 59.4853 130.156 59.112C129.782 58.7387 129.526 58.2427 129.388 57.624C129.26 56.9947 129.196 56.216 129.196 55.288C129.196 54.3707 129.26 53.6027 129.388 52.984C129.526 52.3653 129.782 51.8747 130.156 51.512C130.529 51.1387 131.062 50.952 131.756 50.952C132.46 50.952 132.998 51.1387 133.372 51.512C133.745 51.8747 133.996 52.3653 134.124 52.984C134.262 53.6027 134.332 54.3707 134.332 55.288ZM137.344 59.88C139.157 58.664 140.608 57.4587 141.696 56.264C142.784 55.0587 143.328 53.9387 143.328 52.904C143.328 52.264 143.163 51.752 142.832 51.368C142.512 50.9733 141.989 50.776 141.264 50.776C140.517 50.776 139.952 51.016 139.568 51.496C139.184 51.9653 138.971 52.616 138.928 53.448H137.488C137.563 52.1893 137.952 51.224 138.656 50.552C139.36 49.8693 140.267 49.528 141.376 49.528C142.432 49.528 143.269 49.8107 143.888 50.376C144.507 50.9413 144.816 51.7413 144.816 52.776C144.816 53.6293 144.539 54.4987 143.984 55.384C143.44 56.2587 142.752 57.0747 141.92 57.832C141.099 58.5787 140.251 59.2133 139.376 59.736H145.104V60.936H137.344V59.88ZM150.534 49.416C151.259 49.416 151.883 49.544 152.406 49.8C152.929 50.056 153.323 50.408 153.59 50.856C153.857 51.304 153.99 51.8107 153.99 52.376C153.99 53.08 153.782 53.672 153.366 54.152C152.961 54.632 152.363 54.92 151.574 55.016V55.112C152.395 55.3253 153.035 55.656 153.494 56.104C153.963 56.552 154.198 57.1707 154.198 57.96C154.198 58.888 153.889 59.6453 153.27 60.232C152.651 60.8187 151.761 61.112 150.598 61.112C149.435 61.112 148.491 60.8133 147.766 60.216C147.051 59.608 146.63 58.7227 146.502 57.56H147.942C148.038 58.264 148.305 58.824 148.742 59.24C149.19 59.656 149.793 59.864 150.55 59.864C151.265 59.864 151.814 59.6827 152.198 59.32C152.582 58.9467 152.774 58.4667 152.774 57.88C152.774 57.176 152.497 56.6427 151.942 56.28C151.398 55.9067 150.619 55.72 149.606 55.72H149.222V54.504H149.606C151.569 54.504 152.55 53.848 152.55 52.536C152.55 51.96 152.369 51.5013 152.006 51.16C151.643 50.8187 151.142 50.648 150.502 50.648C149.862 50.648 149.323 50.8347 148.886 51.208C148.449 51.5707 148.193 52.1093 148.118 52.824H146.694C146.769 51.7573 147.137 50.9253 147.798 50.328C148.47 49.72 149.382 49.416 150.534 49.416Z" fill="#222222"/>
<path d="M170.69 55C170.69 54.7271 170.595 54.5049 170.373 54.2954L165.504 49.5347C165.339 49.3633 165.136 49.2808 164.889 49.2808C164.4 49.2808 164 49.6743 164 50.1631C164 50.4043 164.102 50.6265 164.279 50.8042L168.596 54.9937L164.279 59.1958C164.102 59.3672 164 59.5894 164 59.8369C164 60.3257 164.4 60.7192 164.889 60.7192C165.13 60.7192 165.339 60.6367 165.504 60.4653L170.373 55.7046C170.595 55.4951 170.69 55.2666 170.69 55Z" fill="#3E82D7"/>
</g>
<path d="M344 55C344 55.3418 344.127 55.6348 344.4 55.8887L351.998 63.3301C352.213 63.5449 352.486 63.6621 352.809 63.6621C353.453 63.6621 353.971 63.1543 353.971 62.5C353.971 62.1777 353.834 61.8945 353.619 61.6699L346.773 55L353.619 48.3301C353.834 48.1055 353.971 47.8125 353.971 47.5C353.971 46.8457 353.453 46.3379 352.809 46.3379C352.486 46.3379 352.213 46.4551 351.998 46.6699L344.4 54.1016C344.127 54.3652 344 54.6582 344 55Z" fill="#3E82D7"/>
<path d="M395 55C394.99 54.6582 394.863 54.3652 394.6 54.1016L387.002 46.6699C386.777 46.4551 386.514 46.3379 386.191 46.3379C385.537 46.3379 385.029 46.8457 385.029 47.5C385.029 47.8125 385.156 48.1055 385.381 48.3301L392.217 55L385.381 61.6699C385.156 61.8945 385.029 62.1777 385.029 62.5C385.029 63.1543 385.537 63.6621 386.191 63.6621C386.504 63.6621 386.777 63.5449 387.002 63.3301L394.6 55.8887C394.873 55.6348 395 55.3418 395 55Z" fill="#3E82D7"/>
<path d="M96.0286 90.612C96.0286 91.06 95.9126 91.472 95.6806 91.848C95.4566 92.224 95.1206 92.524 94.6726 92.748C94.2326 92.972 93.6966 93.084 93.0646 93.084C92.1126 93.084 91.3286 92.852 90.7126 92.388C90.0966 91.924 89.7606 91.276 89.7046 90.444H91.8886C91.9206 90.764 92.0326 91.016 92.2246 91.2C92.4246 91.384 92.6766 91.476 92.9806 91.476C93.2446 91.476 93.4526 91.404 93.6046 91.26C93.7566 91.116 93.8326 90.924 93.8326 90.684C93.8326 90.468 93.7606 90.288 93.6166 90.144C93.4806 90 93.3086 89.884 93.1006 89.796C92.8926 89.7 92.6046 89.588 92.2366 89.46C91.7006 89.276 91.2606 89.1 90.9166 88.932C90.5806 88.756 90.2886 88.5 90.0406 88.164C89.8006 87.82 89.6806 87.376 89.6806 86.832C89.6806 86.328 89.8086 85.892 90.0646 85.524C90.3206 85.156 90.6726 84.876 91.1206 84.684C91.5766 84.484 92.0966 84.384 92.6806 84.384C93.6246 84.384 94.3726 84.608 94.9246 85.056C95.4846 85.504 95.8006 86.12 95.8726 86.904H93.6526C93.6126 86.624 93.5086 86.404 93.3406 86.244C93.1806 86.076 92.9606 85.992 92.6806 85.992C92.4406 85.992 92.2446 86.056 92.0926 86.184C91.9486 86.312 91.8766 86.5 91.8766 86.748C91.8766 86.948 91.9406 87.12 92.0686 87.264C92.2046 87.4 92.3726 87.512 92.5726 87.6C92.7726 87.688 93.0606 87.8 93.4366 87.936C93.9806 88.12 94.4246 88.304 94.7686 88.488C95.1126 88.664 95.4086 88.924 95.6566 89.268C95.9046 89.612 96.0286 90.06 96.0286 90.612ZM99.1551 84.516V89.412C99.1551 89.972 99.2791 90.4 99.5271 90.696C99.7831 90.992 100.151 91.14 100.631 91.14C101.111 91.14 101.475 90.992 101.723 90.696C101.979 90.4 102.107 89.972 102.107 89.412V84.516H104.159V89.412C104.159 90.212 104.003 90.888 103.691 91.44C103.379 91.984 102.951 92.396 102.407 92.676C101.871 92.948 101.263 93.084 100.583 93.084C99.9031 93.084 99.3031 92.948 98.7831 92.676C98.2631 92.404 97.8551 91.992 97.5591 91.44C97.2631 90.888 97.1151 90.212 97.1151 89.412V84.516H99.1551ZM113.066 93H111.014L107.582 87.792V93H105.53V84.516H107.582L111.014 89.772V84.516H113.066V93Z" fill="#AFAFAF"/>
<path d="M142.081 84.576V93H140.029V87.732L138.205 93H136.429L134.593 87.72V93H132.541V84.576H135.049L137.341 90.444L139.585 84.576H142.081ZM147.53 84.384C148.33 84.384 149.054 84.572 149.702 84.948C150.358 85.316 150.874 85.832 151.25 86.496C151.626 87.152 151.814 87.896 151.814 88.728C151.814 89.56 151.622 90.308 151.238 90.972C150.862 91.636 150.346 92.156 149.69 92.532C149.042 92.9 148.322 93.084 147.53 93.084C146.738 93.084 146.014 92.9 145.358 92.532C144.71 92.156 144.194 91.636 143.81 90.972C143.434 90.308 143.246 89.56 143.246 88.728C143.246 87.896 143.434 87.152 143.81 86.496C144.194 85.832 144.71 85.316 145.358 84.948C146.014 84.572 146.738 84.384 147.53 84.384ZM147.53 86.292C146.858 86.292 146.322 86.512 145.922 86.952C145.53 87.384 145.334 87.976 145.334 88.728C145.334 89.472 145.53 90.064 145.922 90.504C146.322 90.944 146.858 91.164 147.53 91.164C148.194 91.164 148.726 90.944 149.126 90.504C149.526 90.064 149.726 89.472 149.726 88.728C149.726 87.984 149.526 87.392 149.126 86.952C148.734 86.512 148.202 86.292 147.53 86.292ZM160.503 93H158.451L155.019 87.792V93H152.967V84.516H155.019L158.451 89.772V84.516H160.503V93Z" fill="#AFAFAF"/>
<path d="M189.584 84.516V86.148H187.28V93H185.216V86.148H182.936V84.516H189.584ZM192.441 84.516V89.412C192.441 89.972 192.565 90.4 192.813 90.696C193.069 90.992 193.437 91.14 193.917 91.14C194.397 91.14 194.761 90.992 195.009 90.696C195.265 90.4 195.393 89.972 195.393 89.412V84.516H197.445V89.412C197.445 90.212 197.289 90.888 196.977 91.44C196.665 91.984 196.237 92.396 195.693 92.676C195.157 92.948 194.549 93.084 193.869 93.084C193.189 93.084 192.589 92.948 192.069 92.676C191.549 92.404 191.141 91.992 190.845 91.44C190.549 90.888 190.401 90.212 190.401 89.412V84.516H192.441ZM200.868 86.148V87.924H203.736V89.472H200.868V91.356H204.096V93H198.816V84.516H204.096V86.148H200.868Z" fill="#AFAFAF"/>
<path d="M237.812 84.516L235.784 93H233.24L231.884 87.324L230.516 93H227.972L225.944 84.516H228.176L229.268 90.66L230.756 84.516H233L234.488 90.66L235.592 84.516H237.812ZM240.942 86.148V87.924H243.81V89.472H240.942V91.356H244.17V93H238.89V84.516H244.17V86.148H240.942ZM252.967 88.74C252.967 89.572 252.787 90.312 252.427 90.96C252.075 91.6 251.563 92.1 250.891 92.46C250.227 92.82 249.443 93 248.539 93H245.335V84.516H248.539C249.451 84.516 250.239 84.692 250.903 85.044C251.567 85.396 252.075 85.892 252.427 86.532C252.787 87.172 252.967 87.908 252.967 88.74ZM248.359 91.164C249.159 91.164 249.779 90.952 250.219 90.528C250.667 90.104 250.891 89.508 250.891 88.74C250.891 87.972 250.667 87.376 250.219 86.952C249.779 86.528 249.159 86.316 248.359 86.316H247.387V91.164H248.359Z" fill="#AFAFAF"/>
<path d="M281.602 84.516V86.148H279.298V93H277.234V86.148H274.954V84.516H281.602ZM289.799 84.516V93H287.735V89.46H284.519V93H282.467V84.516H284.519V87.804H287.735V84.516H289.799ZM293.201 84.516V89.412C293.201 89.972 293.325 90.4 293.573 90.696C293.829 90.992 294.197 91.14 294.677 91.14C295.157 91.14 295.521 90.992 295.769 90.696C296.025 90.4 296.153 89.972 296.153 89.412V84.516H298.205V89.412C298.205 90.212 298.049 90.888 297.737 91.44C297.425 91.984 296.997 92.396 296.453 92.676C295.917 92.948 295.309 93.084 294.629 93.084C293.949 93.084 293.349 92.948 292.829 92.676C292.309 92.404 291.901 91.992 291.605 91.44C291.309 90.888 291.161 90.212 291.161 89.412V84.516H293.201Z" fill="#AFAFAF"/>
<path d="M329.565 84.516V86.148H326.085V88.008H328.773V89.568H326.085V93H324.033V84.516H329.565ZM334.975 93L333.139 89.796H332.671V93H330.619V84.516H334.123C334.795 84.516 335.363 84.632 335.827 84.864C336.291 85.096 336.639 85.416 336.871 85.824C337.103 86.224 337.219 86.684 337.219 87.204C337.219 87.82 337.047 88.344 336.703 88.776C336.367 89.208 335.875 89.504 335.227 89.664L337.243 93H334.975ZM332.671 88.392H333.943C334.351 88.392 334.651 88.304 334.843 88.128C335.035 87.944 335.131 87.676 335.131 87.324C335.131 86.988 335.031 86.724 334.831 86.532C334.639 86.34 334.343 86.244 333.943 86.244H332.671V88.392ZM340.3 84.516V93H338.248V84.516H340.3Z" fill="#AFAFAF"/>
<path d="M374.825 90.612C374.825 91.06 374.709 91.472 374.477 91.848C374.253 92.224 373.917 92.524 373.469 92.748C373.029 92.972 372.493 93.084 371.861 93.084C370.909 93.084 370.125 92.852 369.509 92.388C368.893 91.924 368.557 91.276 368.501 90.444H370.685C370.717 90.764 370.829 91.016 371.021 91.2C371.221 91.384 371.473 91.476 371.777 91.476C372.041 91.476 372.249 91.404 372.401 91.26C372.553 91.116 372.629 90.924 372.629 90.684C372.629 90.468 372.557 90.288 372.413 90.144C372.277 90 372.105 89.884 371.897 89.796C371.689 89.7 371.401 89.588 371.033 89.46C370.497 89.276 370.057 89.1 369.713 88.932C369.377 88.756 369.085 88.5 368.837 88.164C368.597 87.82 368.477 87.376 368.477 86.832C368.477 86.328 368.605 85.892 368.861 85.524C369.117 85.156 369.469 84.876 369.917 84.684C370.373 84.484 370.893 84.384 371.477 84.384C372.421 84.384 373.169 84.608 373.721 85.056C374.281 85.504 374.597 86.12 374.669 86.904H372.449C372.409 86.624 372.305 86.404 372.137 86.244C371.977 86.076 371.757 85.992 371.477 85.992C371.237 85.992 371.041 86.056 370.889 86.184C370.745 86.312 370.673 86.5 370.673 86.748C370.673 86.948 370.737 87.12 370.865 87.264C371.001 87.4 371.169 87.512 371.369 87.6C371.569 87.688 371.857 87.8 372.233 87.936C372.777 88.12 373.221 88.304 373.565 88.488C373.909 88.664 374.205 88.924 374.453 89.268C374.701 89.612 374.825 90.06 374.825 90.612ZM381.216 91.452H378.036L377.508 93H375.348L378.456 84.576H380.82L383.928 93H381.744L381.216 91.452ZM380.688 89.892L379.632 86.772L378.564 89.892H380.688ZM390.822 84.516V86.148H388.518V93H386.454V86.148H384.174V84.516H390.822Z" fill="#AFAFAF"/>
<path d="M191.317 129.84V128.31H194.953V141H193.225V129.84H191.317Z" fill="#222222"/>
<path d="M235.65 139.74C237.69 138.372 239.322 137.016 240.546 135.672C241.77 134.316 242.382 133.056 242.382 131.892C242.382 131.172 242.196 130.596 241.824 130.164C241.464 129.72 240.876 129.498 240.06 129.498C239.22 129.498 238.584 129.768 238.152 130.308C237.72 130.836 237.48 131.568 237.432 132.504H235.812C235.896 131.088 236.334 130.002 237.126 129.246C237.918 128.478 238.938 128.094 240.186 128.094C241.374 128.094 242.316 128.412 243.012 129.048C243.708 129.684 244.056 130.584 244.056 131.748C244.056 132.708 243.744 133.686 243.12 134.682C242.508 135.666 241.734 136.584 240.798 137.436C239.874 138.276 238.92 138.99 237.936 139.578H244.38V140.928H235.65V139.74Z" fill="#222222"/>
<path d="M286.416 127.968C287.232 127.968 287.934 128.112 288.522 128.4C289.11 128.688 289.554 129.084 289.854 129.588C290.154 130.092 290.304 130.662 290.304 131.298C290.304 132.09 290.07 132.756 289.602 133.296C289.146 133.836 288.474 134.16 287.586 134.268V134.376C288.51 134.616 289.23 134.988 289.746 135.492C290.274 135.996 290.538 136.692 290.538 137.58C290.538 138.624 290.19 139.476 289.494 140.136C288.798 140.796 287.796 141.126 286.488 141.126C285.18 141.126 284.118 140.79 283.302 140.118C282.498 139.434 282.024 138.438 281.88 137.13H283.5C283.608 137.922 283.908 138.552 284.4 139.02C284.904 139.488 285.582 139.722 286.434 139.722C287.238 139.722 287.856 139.518 288.288 139.11C288.72 138.69 288.936 138.15 288.936 137.49C288.936 136.698 288.624 136.098 288 135.69C287.388 135.27 286.512 135.06 285.372 135.06H284.94V133.692H285.372C287.58 133.692 288.684 132.954 288.684 131.478C288.684 130.83 288.48 130.314 288.072 129.93C287.664 129.546 287.1 129.354 286.38 129.354C285.66 129.354 285.054 129.564 284.562 129.984C284.07 130.392 283.782 130.998 283.698 131.802H282.096C282.18 130.602 282.594 129.666 283.338 128.994C284.094 128.31 285.12 127.968 286.416 127.968Z" fill="#222222"/>
<path d="M327.644 138.084V136.716L334.16 128.22H335.924V136.662H337.796V138.084H335.924V141H334.268V138.084H327.644ZM334.376 130.218L329.372 136.662H334.376V130.218Z" fill="#222222"/>
<path d="M383.03 129.606H376.514V133.854C376.814 133.446 377.246 133.122 377.81 132.882C378.374 132.642 378.992 132.522 379.664 132.522C380.564 132.522 381.308 132.714 381.896 133.098C382.496 133.47 382.934 133.968 383.21 134.592C383.498 135.204 383.642 135.888 383.642 136.644C383.642 137.952 383.276 139.02 382.544 139.848C381.812 140.676 380.738 141.09 379.322 141.09C378.05 141.09 377.012 140.748 376.208 140.064C375.404 139.368 374.954 138.438 374.858 137.274H376.478C376.61 138.018 376.916 138.6 377.396 139.02C377.888 139.428 378.506 139.632 379.25 139.632C380.174 139.632 380.87 139.356 381.338 138.804C381.806 138.252 382.04 137.526 382.04 136.626C382.04 135.75 381.8 135.066 381.32 134.574C380.84 134.082 380.162 133.836 379.286 133.836C378.662 133.836 378.116 133.974 377.648 134.25C377.18 134.514 376.826 134.874 376.586 135.33H375.002V128.148H383.03V129.606Z" fill="#222222"/>
<path d="M103.6 179.694C103.504 178.938 103.246 178.356 102.826 177.948C102.418 177.528 101.848 177.318 101.116 177.318C100.096 177.318 99.3222 177.714 98.7942 178.506C98.2782 179.298 98.0202 180.552 98.0202 182.268L98.0382 182.934C98.2182 182.214 98.6322 181.644 99.2802 181.224C99.9282 180.792 100.69 180.576 101.566 180.576C102.826 180.576 103.81 180.954 104.518 181.71C105.238 182.466 105.598 183.522 105.598 184.878C105.598 185.67 105.442 186.39 105.13 187.038C104.818 187.674 104.338 188.184 103.69 188.568C103.054 188.94 102.262 189.126 101.314 189.126C99.5022 189.126 98.2542 188.556 97.5702 187.416C96.8982 186.276 96.5622 184.728 96.5622 182.772C96.5622 180.516 96.9222 178.824 97.6422 177.696C98.3742 176.556 99.5622 175.986 101.206 175.986C102.418 175.986 103.348 176.328 103.996 177.012C104.656 177.696 105.046 178.59 105.166 179.694H103.6ZM98.2182 184.608C98.2182 185.484 98.4702 186.222 98.9742 186.822C99.4902 187.41 100.258 187.704 101.278 187.704C102.118 187.704 102.79 187.458 103.294 186.966C103.798 186.462 104.05 185.76 104.05 184.86C104.05 183.888 103.798 183.15 103.294 182.646C102.79 182.13 102.094 181.872 101.206 181.872C100.702 181.872 100.222 181.974 99.7662 182.178C99.3102 182.382 98.9382 182.694 98.6502 183.114C98.3622 183.522 98.2182 184.02 98.2182 184.608Z" fill="#222222"/>
<rect x="131.333" y="167" width="32" height="32" rx="16" fill="#42C9B8"/>
<path d="M151.349 177.498L146.543 189H144.815L149.693 177.66H143.033V176.238H151.349V177.498Z" fill="white"/>
<path d="M189.32 179.298C189.32 178.674 189.488 178.104 189.824 177.588C190.16 177.072 190.658 176.664 191.318 176.364C191.978 176.064 192.764 175.914 193.676 175.914C194.588 175.914 195.368 176.064 196.016 176.364C196.676 176.664 197.174 177.072 197.51 177.588C197.846 178.104 198.014 178.674 198.014 179.298C198.014 180.006 197.822 180.618 197.438 181.134C197.054 181.65 196.472 182.016 195.692 182.232C196.532 182.46 197.186 182.856 197.654 183.42C198.122 183.984 198.356 184.68 198.356 185.508C198.356 186.708 197.93 187.65 197.078 188.334C196.226 189.018 195.092 189.36 193.676 189.36C192.26 189.36 191.126 189.018 190.274 188.334C189.422 187.65 188.996 186.708 188.996 185.508C188.996 184.68 189.224 183.984 189.68 183.42C190.148 182.856 190.802 182.46 191.642 182.232C190.862 182.016 190.28 181.65 189.896 181.134C189.512 180.618 189.32 180.006 189.32 179.298ZM190.94 179.532C190.94 180.252 191.186 180.81 191.678 181.206C192.17 181.59 192.836 181.782 193.676 181.782C194.516 181.782 195.176 181.59 195.656 181.206C196.148 180.81 196.394 180.252 196.394 179.532C196.394 178.812 196.148 178.26 195.656 177.876C195.164 177.48 194.504 177.282 193.676 177.282C192.848 177.282 192.182 177.48 191.678 177.876C191.186 178.26 190.94 178.812 190.94 179.532ZM190.598 185.418C190.598 186.234 190.874 186.87 191.426 187.326C191.978 187.77 192.728 187.992 193.676 187.992C194.612 187.992 195.356 187.764 195.908 187.308C196.46 186.852 196.736 186.222 196.736 185.418C196.736 184.602 196.448 183.984 195.872 183.564C195.296 183.144 194.564 182.934 193.676 182.934C192.776 182.934 192.038 183.144 191.462 183.564C190.886 183.984 190.598 184.602 190.598 185.418Z" fill="#222222"/>
<path d="M237.404 185.436C237.512 186.192 237.776 186.774 238.196 187.182C238.616 187.59 239.192 187.794 239.924 187.794C240.932 187.794 241.694 187.404 242.21 186.624C242.726 185.844 242.984 184.608 242.984 182.916C242.984 182.592 242.978 182.346 242.966 182.178C242.798 182.898 242.39 183.474 241.742 183.906C241.094 184.338 240.332 184.554 239.456 184.554C238.196 184.554 237.206 184.176 236.486 183.42C235.766 182.664 235.406 181.608 235.406 180.252C235.406 179.46 235.562 178.74 235.874 178.092C236.186 177.444 236.66 176.934 237.296 176.562C237.944 176.178 238.742 175.986 239.69 175.986C241.514 175.986 242.762 176.55 243.434 177.678C244.118 178.794 244.46 180.33 244.46 182.286C244.46 184.518 244.112 186.222 243.416 187.398C242.72 188.562 241.556 189.144 239.924 189.144C238.712 189.144 237.758 188.802 237.062 188.118C236.378 187.422 235.976 186.528 235.856 185.436H237.404ZM242.804 180.504C242.804 179.64 242.546 178.908 242.03 178.308C241.526 177.708 240.764 177.408 239.744 177.408C238.904 177.408 238.232 177.66 237.728 178.164C237.224 178.668 236.972 179.37 236.972 180.27C236.972 181.23 237.224 181.968 237.728 182.484C238.232 183 238.922 183.258 239.798 183.258C240.302 183.258 240.782 183.156 241.238 182.952C241.706 182.748 242.084 182.436 242.372 182.016C242.66 181.596 242.804 181.092 242.804 180.504Z" fill="#222222"/>
<path d="M278.455 177.84V176.31H282.091V189H280.363V177.84H278.455ZM284.415 182.574C284.415 184.614 284.751 186.204 285.423 187.344C286.095 188.484 287.259 189.054 288.915 189.054C290.571 189.054 291.735 188.484 292.407 187.344C293.091 186.204 293.433 184.614 293.433 182.574C293.433 180.558 293.091 178.98 292.407 177.84C291.735 176.7 290.571 176.13 288.915 176.13C287.259 176.13 286.095 176.7 285.423 177.84C284.751 178.968 284.415 180.546 284.415 182.574ZM291.813 182.574C291.813 183.618 291.735 184.494 291.579 185.202C291.435 185.898 291.153 186.456 290.733 186.876C290.313 187.296 289.707 187.506 288.915 187.506C288.135 187.506 287.535 187.296 287.115 186.876C286.695 186.456 286.407 185.898 286.251 185.202C286.107 184.494 286.035 183.618 286.035 182.574C286.035 181.542 286.107 180.678 286.251 179.982C286.407 179.286 286.695 178.734 287.115 178.326C287.535 177.906 288.135 177.696 288.915 177.696C289.707 177.696 290.313 177.906 290.733 178.326C291.153 178.734 291.435 179.286 291.579 179.982C291.735 180.678 291.813 181.542 291.813 182.574Z" fill="#222222"/>
<path d="M327.733 177.84V176.31H331.369V189H329.641V177.84H327.733ZM332.901 177.84V176.31H336.537V189H334.809V177.84H332.901Z" fill="#222222"/>
<path d="M371.544 177.84V176.31H375.18V189H373.452V177.84H371.544ZM377.234 187.74C379.274 186.372 380.906 185.016 382.13 183.672C383.354 182.316 383.966 181.056 383.966 179.892C383.966 179.172 383.78 178.596 383.408 178.164C383.048 177.72 382.46 177.498 381.644 177.498C380.804 177.498 380.168 177.768 379.736 178.308C379.304 178.836 379.064 179.568 379.016 180.504H377.396C377.48 179.088 377.918 178.002 378.71 177.246C379.502 176.478 380.522 176.094 381.77 176.094C382.958 176.094 383.9 176.412 384.596 177.048C385.292 177.684 385.64 178.584 385.64 179.748C385.64 180.708 385.328 181.686 384.704 182.682C384.092 183.666 383.318 184.584 382.382 185.436C381.458 186.276 380.504 186.99 379.52 187.578H385.964V188.928H377.234V187.74Z" fill="#222222"/>
<path d="M93.3502 225.84V224.31H96.9862V237H95.2582V225.84H93.3502ZM103.666 223.968C104.482 223.968 105.184 224.112 105.772 224.4C106.36 224.688 106.804 225.084 107.104 225.588C107.404 226.092 107.554 226.662 107.554 227.298C107.554 228.09 107.32 228.756 106.852 229.296C106.396 229.836 105.724 230.16 104.836 230.268V230.376C105.76 230.616 106.48 230.988 106.996 231.492C107.524 231.996 107.788 232.692 107.788 233.58C107.788 234.624 107.44 235.476 106.744 236.136C106.048 236.796 105.046 237.126 103.738 237.126C102.43 237.126 101.368 236.79 100.552 236.118C99.7482 235.434 99.2742 234.438 99.1302 233.13H100.75C100.858 233.922 101.158 234.552 101.65 235.02C102.154 235.488 102.832 235.722 103.684 235.722C104.488 235.722 105.106 235.518 105.538 235.11C105.97 234.69 106.186 234.15 106.186 233.49C106.186 232.698 105.874 232.098 105.25 231.69C104.638 231.27 103.762 231.06 102.622 231.06H102.19V229.692H102.622C104.83 229.692 105.934 228.954 105.934 227.478C105.934 226.83 105.73 226.314 105.322 225.93C104.914 225.546 104.35 225.354 103.63 225.354C102.91 225.354 102.304 225.564 101.812 225.984C101.32 226.392 101.032 226.998 100.948 227.802H99.3462C99.4302 226.602 99.8442 225.666 100.588 224.994C101.344 224.31 102.37 223.968 103.666 223.968Z" fill="#222222"/>
<path d="M139.402 225.84V224.31H143.038V237H141.31V225.84H139.402ZM144.894 234.084V232.716L151.41 224.22H153.174V232.662H155.046V234.084H153.174V237H151.518V234.084H144.894ZM151.626 226.218L146.622 232.662H151.626V226.218Z" fill="#222222"/>
<path d="M185.771 225.84V224.31H189.407V237H187.679V225.84H185.771ZM200.281 225.606H193.765V229.854C194.065 229.446 194.497 229.122 195.061 228.882C195.625 228.642 196.243 228.522 196.915 228.522C197.815 228.522 198.559 228.714 199.147 229.098C199.747 229.47 200.185 229.968 200.461 230.592C200.749 231.204 200.893 231.888 200.893 232.644C200.893 233.952 200.527 235.02 199.795 235.848C199.063 236.676 197.989 237.09 196.573 237.09C195.301 237.09 194.263 236.748 193.459 236.064C192.655 235.368 192.205 234.438 192.109 233.274H193.729C193.861 234.018 194.167 234.6 194.647 235.02C195.139 235.428 195.757 235.632 196.501 235.632C197.425 235.632 198.121 235.356 198.589 234.804C199.057 234.252 199.291 233.526 199.291 232.626C199.291 231.75 199.051 231.066 198.571 230.574C198.091 230.082 197.413 229.836 196.537 229.836C195.913 229.836 195.367 229.974 194.899 230.25C194.431 230.514 194.077 230.874 193.837 231.33H192.253V224.148H200.281V225.606Z" fill="#222222"/>
<path d="M232.06 225.84V224.31H235.696V237H233.968V225.84H232.06ZM245.184 227.694C245.088 226.938 244.83 226.356 244.41 225.948C244.002 225.528 243.432 225.318 242.7 225.318C241.68 225.318 240.906 225.714 240.378 226.506C239.862 227.298 239.604 228.552 239.604 230.268L239.622 230.934C239.802 230.214 240.216 229.644 240.864 229.224C241.512 228.792 242.274 228.576 243.15 228.576C244.41 228.576 245.394 228.954 246.102 229.71C246.822 230.466 247.182 231.522 247.182 232.878C247.182 233.67 247.026 234.39 246.714 235.038C246.402 235.674 245.922 236.184 245.274 236.568C244.638 236.94 243.846 237.126 242.898 237.126C241.086 237.126 239.838 236.556 239.154 235.416C238.482 234.276 238.146 232.728 238.146 230.772C238.146 228.516 238.506 226.824 239.226 225.696C239.958 224.556 241.146 223.986 242.79 223.986C244.002 223.986 244.932 224.328 245.58 225.012C246.24 225.696 246.63 226.59 246.75 227.694H245.184ZM239.802 232.608C239.802 233.484 240.054 234.222 240.558 234.822C241.074 235.41 241.842 235.704 242.862 235.704C243.702 235.704 244.374 235.458 244.878 234.966C245.382 234.462 245.634 233.76 245.634 232.86C245.634 231.888 245.382 231.15 244.878 230.646C244.374 230.13 243.678 229.872 242.79 229.872C242.286 229.872 241.806 229.974 241.35 230.178C240.894 230.382 240.522 230.694 240.234 231.114C239.946 231.522 239.802 232.02 239.802 232.608Z" fill="#222222"/>
<path d="M279.431 225.84V224.31H283.067V237H281.339V225.84H279.431ZM292.933 225.498L288.127 237H286.399L291.277 225.66H284.617V224.238H292.933V225.498Z" fill="#222222"/>
<path d="M324.692 225.84V224.31H328.328V237H326.6V225.84H324.692ZM330.904 227.298C330.904 226.674 331.072 226.104 331.408 225.588C331.744 225.072 332.242 224.664 332.902 224.364C333.562 224.064 334.348 223.914 335.26 223.914C336.172 223.914 336.952 224.064 337.6 224.364C338.26 224.664 338.758 225.072 339.094 225.588C339.43 226.104 339.598 226.674 339.598 227.298C339.598 228.006 339.406 228.618 339.022 229.134C338.638 229.65 338.056 230.016 337.276 230.232C338.116 230.46 338.77 230.856 339.238 231.42C339.706 231.984 339.94 232.68 339.94 233.508C339.94 234.708 339.514 235.65 338.662 236.334C337.81 237.018 336.676 237.36 335.26 237.36C333.844 237.36 332.71 237.018 331.858 236.334C331.006 235.65 330.58 234.708 330.58 233.508C330.58 232.68 330.808 231.984 331.264 231.42C331.732 230.856 332.386 230.46 333.226 230.232C332.446 230.016 331.864 229.65 331.48 229.134C331.096 228.618 330.904 228.006 330.904 227.298ZM332.524 227.532C332.524 228.252 332.77 228.81 333.262 229.206C333.754 229.59 334.42 229.782 335.26 229.782C336.1 229.782 336.76 229.59 337.24 229.206C337.732 228.81 337.978 228.252 337.978 227.532C337.978 226.812 337.732 226.26 337.24 225.876C336.748 225.48 336.088 225.282 335.26 225.282C334.432 225.282 333.766 225.48 333.262 225.876C332.77 226.26 332.524 226.812 332.524 227.532ZM332.182 233.418C332.182 234.234 332.458 234.87 333.01 235.326C333.562 235.77 334.312 235.992 335.26 235.992C336.196 235.992 336.94 235.764 337.492 235.308C338.044 234.852 338.32 234.222 338.32 233.418C338.32 232.602 338.032 231.984 337.456 231.564C336.88 231.144 336.148 230.934 335.26 230.934C334.36 230.934 333.622 231.144 333.046 231.564C332.47 231.984 332.182 232.602 332.182 233.418Z" fill="#222222"/>
<path d="M371.174 225.84V224.31H374.81V237H373.082V225.84H371.174ZM378.988 233.436C379.096 234.192 379.36 234.774 379.78 235.182C380.2 235.59 380.776 235.794 381.508 235.794C382.516 235.794 383.278 235.404 383.794 234.624C384.31 233.844 384.568 232.608 384.568 230.916C384.568 230.592 384.562 230.346 384.55 230.178C384.382 230.898 383.974 231.474 383.326 231.906C382.678 232.338 381.916 232.554 381.04 232.554C379.78 232.554 378.79 232.176 378.07 231.42C377.35 230.664 376.99 229.608 376.99 228.252C376.99 227.46 377.146 226.74 377.458 226.092C377.77 225.444 378.244 224.934 378.88 224.562C379.528 224.178 380.326 223.986 381.274 223.986C383.098 223.986 384.346 224.55 385.018 225.678C385.702 226.794 386.044 228.33 386.044 230.286C386.044 232.518 385.696 234.222 385 235.398C384.304 236.562 383.14 237.144 381.508 237.144C380.296 237.144 379.342 236.802 378.646 236.118C377.962 235.422 377.56 234.528 377.44 233.436H378.988ZM384.388 228.504C384.388 227.64 384.13 226.908 383.614 226.308C383.11 225.708 382.348 225.408 381.328 225.408C380.488 225.408 379.816 225.66 379.312 226.164C378.808 226.668 378.556 227.37 378.556 228.27C378.556 229.23 378.808 229.968 379.312 230.484C379.816 231 380.506 231.258 381.382 231.258C381.886 231.258 382.366 231.156 382.822 230.952C383.29 230.748 383.668 230.436 383.956 230.016C384.244 229.596 384.388 229.092 384.388 228.504Z" fill="#222222"/>
<path d="M91.1212 283.74C93.1612 282.372 94.7932 281.016 96.0172 279.672C97.2412 278.316 97.8532 277.056 97.8532 275.892C97.8532 275.172 97.6672 274.596 97.2952 274.164C96.9352 273.72 96.3472 273.498 95.5312 273.498C94.6912 273.498 94.0552 273.768 93.6232 274.308C93.1912 274.836 92.9512 275.568 92.9032 276.504H91.2832C91.3672 275.088 91.8052 274.002 92.5972 273.246C93.3892 272.478 94.4092 272.094 95.6572 272.094C96.8452 272.094 97.7872 272.412 98.4832 273.048C99.1792 273.684 99.5272 274.584 99.5272 275.748C99.5272 276.708 99.2152 277.686 98.5912 278.682C97.9792 279.666 97.2052 280.584 96.2692 281.436C95.3452 282.276 94.3912 282.99 93.4072 283.578H99.8512V284.928H91.1212V283.74ZM101.604 278.574C101.604 280.614 101.94 282.204 102.612 283.344C103.284 284.484 104.448 285.054 106.104 285.054C107.76 285.054 108.924 284.484 109.596 283.344C110.28 282.204 110.622 280.614 110.622 278.574C110.622 276.558 110.28 274.98 109.596 273.84C108.924 272.7 107.76 272.13 106.104 272.13C104.448 272.13 103.284 272.7 102.612 273.84C101.94 274.968 101.604 276.546 101.604 278.574ZM109.002 278.574C109.002 279.618 108.924 280.494 108.768 281.202C108.624 281.898 108.342 282.456 107.922 282.876C107.502 283.296 106.896 283.506 106.104 283.506C105.324 283.506 104.724 283.296 104.304 282.876C103.884 282.456 103.596 281.898 103.44 281.202C103.296 280.494 103.224 279.618 103.224 278.574C103.224 277.542 103.296 276.678 103.44 275.982C103.596 275.286 103.884 274.734 104.304 274.326C104.724 273.906 105.324 273.696 106.104 273.696C106.896 273.696 107.502 273.906 107.922 274.326C108.342 274.734 108.624 275.286 108.768 275.982C108.924 276.678 109.002 277.542 109.002 278.574Z" fill="#222222"/>
<path d="M140.399 283.74C142.439 282.372 144.071 281.016 145.295 279.672C146.519 278.316 147.131 277.056 147.131 275.892C147.131 275.172 146.945 274.596 146.573 274.164C146.213 273.72 145.625 273.498 144.809 273.498C143.969 273.498 143.333 273.768 142.901 274.308C142.469 274.836 142.229 275.568 142.181 276.504H140.561C140.645 275.088 141.083 274.002 141.875 273.246C142.667 272.478 143.687 272.094 144.935 272.094C146.123 272.094 147.065 272.412 147.761 273.048C148.457 273.684 148.805 274.584 148.805 275.748C148.805 276.708 148.493 277.686 147.869 278.682C147.257 279.666 146.483 280.584 145.547 281.436C144.623 282.276 143.669 282.99 142.685 283.578H149.129V284.928H140.399V283.74ZM150.09 273.84V272.31H153.726V285H151.998V273.84H150.09Z" fill="#222222"/>
<path d="M184.21 283.74C186.25 282.372 187.882 281.016 189.106 279.672C190.33 278.316 190.942 277.056 190.942 275.892C190.942 275.172 190.756 274.596 190.384 274.164C190.024 273.72 189.436 273.498 188.62 273.498C187.78 273.498 187.144 273.768 186.712 274.308C186.28 274.836 186.04 275.568 185.992 276.504H184.372C184.456 275.088 184.894 274.002 185.686 273.246C186.478 272.478 187.498 272.094 188.746 272.094C189.934 272.094 190.876 272.412 191.572 273.048C192.268 273.684 192.616 274.584 192.616 275.748C192.616 276.708 192.304 277.686 191.68 278.682C191.068 279.666 190.294 280.584 189.358 281.436C188.434 282.276 187.48 282.99 186.496 283.578H192.94V284.928H184.21V283.74ZM194.423 283.74C196.463 282.372 198.095 281.016 199.319 279.672C200.543 278.316 201.155 277.056 201.155 275.892C201.155 275.172 200.969 274.596 200.597 274.164C200.237 273.72 199.649 273.498 198.833 273.498C197.993 273.498 197.357 273.768 196.925 274.308C196.493 274.836 196.253 275.568 196.205 276.504H194.585C194.669 275.088 195.107 274.002 195.899 273.246C196.691 272.478 197.711 272.094 198.959 272.094C200.147 272.094 201.089 272.412 201.785 273.048C202.481 273.684 202.829 274.584 202.829 275.748C202.829 276.708 202.517 277.686 201.893 278.682C201.281 279.666 200.507 280.584 199.571 281.436C198.647 282.276 197.693 282.99 196.709 283.578H203.153V284.928H194.423V283.74Z" fill="#222222"/>
<path d="M230.35 283.74C232.39 282.372 234.022 281.016 235.246 279.672C236.47 278.316 237.082 277.056 237.082 275.892C237.082 275.172 236.896 274.596 236.524 274.164C236.164 273.72 235.576 273.498 234.76 273.498C233.92 273.498 233.284 273.768 232.852 274.308C232.42 274.836 232.18 275.568 232.132 276.504H230.512C230.596 275.088 231.034 274.002 231.826 273.246C232.618 272.478 233.638 272.094 234.886 272.094C236.074 272.094 237.016 272.412 237.712 273.048C238.408 273.684 238.756 274.584 238.756 275.748C238.756 276.708 238.444 277.686 237.82 278.682C237.208 279.666 236.434 280.584 235.498 281.436C234.574 282.276 233.62 282.99 232.636 283.578H239.08V284.928H230.35V283.74ZM245.189 271.968C246.005 271.968 246.707 272.112 247.295 272.4C247.883 272.688 248.327 273.084 248.627 273.588C248.927 274.092 249.077 274.662 249.077 275.298C249.077 276.09 248.843 276.756 248.375 277.296C247.919 277.836 247.247 278.16 246.359 278.268V278.376C247.283 278.616 248.003 278.988 248.519 279.492C249.047 279.996 249.311 280.692 249.311 281.58C249.311 282.624 248.963 283.476 248.267 284.136C247.571 284.796 246.569 285.126 245.261 285.126C243.953 285.126 242.891 284.79 242.075 284.118C241.271 283.434 240.797 282.438 240.653 281.13H242.273C242.381 281.922 242.681 282.552 243.173 283.02C243.677 283.488 244.355 283.722 245.207 283.722C246.011 283.722 246.629 283.518 247.061 283.11C247.493 282.69 247.709 282.15 247.709 281.49C247.709 280.698 247.397 280.098 246.773 279.69C246.161 279.27 245.285 279.06 244.145 279.06H243.713V277.692H244.145C246.353 277.692 247.457 276.954 247.457 275.478C247.457 274.83 247.253 274.314 246.845 273.93C246.437 273.546 245.873 273.354 245.153 273.354C244.433 273.354 243.827 273.564 243.335 273.984C242.843 274.392 242.555 274.998 242.471 275.802H240.869C240.953 274.602 241.367 273.666 242.111 272.994C242.867 272.31 243.893 271.968 245.189 271.968Z" fill="#222222"/>
<path d="M276.402 283.74C278.442 282.372 280.074 281.016 281.298 279.672C282.522 278.316 283.134 277.056 283.134 275.892C283.134 275.172 282.948 274.596 282.576 274.164C282.216 273.72 281.628 273.498 280.812 273.498C279.972 273.498 279.336 273.768 278.904 274.308C278.472 274.836 278.232 275.568 278.184 276.504H276.564C276.648 275.088 277.086 274.002 277.878 273.246C278.67 272.478 279.69 272.094 280.938 272.094C282.126 272.094 283.068 272.412 283.764 273.048C284.46 273.684 284.808 274.584 284.808 275.748C284.808 276.708 284.496 277.686 283.872 278.682C283.26 279.666 282.486 280.584 281.55 281.436C280.626 282.276 279.672 282.99 278.688 283.578H285.132V284.928H276.402V283.74ZM286.417 282.084V280.716L292.933 272.22H294.697V280.662H296.569V282.084H294.697V285H293.041V282.084H286.417ZM293.149 274.218L288.145 280.662H293.149V274.218Z" fill="#222222"/>
<path d="M322.77 283.74C324.81 282.372 326.442 281.016 327.666 279.672C328.89 278.316 329.502 277.056 329.502 275.892C329.502 275.172 329.316 274.596 328.944 274.164C328.584 273.72 327.996 273.498 327.18 273.498C326.34 273.498 325.704 273.768 325.272 274.308C324.84 274.836 324.6 275.568 324.552 276.504H322.932C323.016 275.088 323.454 274.002 324.246 273.246C325.038 272.478 326.058 272.094 327.306 272.094C328.494 272.094 329.436 272.412 330.132 273.048C330.828 273.684 331.176 274.584 331.176 275.748C331.176 276.708 330.864 277.686 330.24 278.682C329.628 279.666 328.854 280.584 327.918 281.436C326.994 282.276 326.04 282.99 325.056 283.578H331.5V284.928H322.77V283.74ZM341.803 273.606H335.287V277.854C335.587 277.446 336.019 277.122 336.583 276.882C337.147 276.642 337.765 276.522 338.437 276.522C339.337 276.522 340.081 276.714 340.669 277.098C341.269 277.47 341.707 277.968 341.983 278.592C342.271 279.204 342.415 279.888 342.415 280.644C342.415 281.952 342.049 283.02 341.317 283.848C340.585 284.676 339.511 285.09 338.095 285.09C336.823 285.09 335.785 284.748 334.981 284.064C334.177 283.368 333.727 282.438 333.631 281.274H335.251C335.383 282.018 335.689 282.6 336.169 283.02C336.661 283.428 337.279 283.632 338.023 283.632C338.947 283.632 339.643 283.356 340.111 282.804C340.579 282.252 340.813 281.526 340.813 280.626C340.813 279.75 340.573 279.066 340.093 278.574C339.613 278.082 338.935 277.836 338.059 277.836C337.435 277.836 336.889 277.974 336.421 278.25C335.953 278.514 335.599 278.874 335.359 279.33H333.775V272.148H341.803V273.606Z" fill="#222222"/>
<path d="M369.06 283.74C371.1 282.372 372.732 281.016 373.956 279.672C375.18 278.316 375.792 277.056 375.792 275.892C375.792 275.172 375.606 274.596 375.234 274.164C374.874 273.72 374.286 273.498 373.47 273.498C372.63 273.498 371.994 273.768 371.562 274.308C371.13 274.836 370.89 275.568 370.842 276.504H369.222C369.306 275.088 369.744 274.002 370.536 273.246C371.328 272.478 372.348 272.094 373.596 272.094C374.784 272.094 375.726 272.412 376.422 273.048C377.118 273.684 377.466 274.584 377.466 275.748C377.466 276.708 377.154 277.686 376.53 278.682C375.918 279.666 375.144 280.584 374.208 281.436C373.284 282.276 372.33 282.99 371.346 283.578H377.79V284.928H369.06V283.74ZM386.707 275.694C386.611 274.938 386.353 274.356 385.933 273.948C385.525 273.528 384.955 273.318 384.223 273.318C383.203 273.318 382.429 273.714 381.901 274.506C381.385 275.298 381.127 276.552 381.127 278.268L381.145 278.934C381.325 278.214 381.739 277.644 382.387 277.224C383.035 276.792 383.797 276.576 384.673 276.576C385.933 276.576 386.917 276.954 387.625 277.71C388.345 278.466 388.705 279.522 388.705 280.878C388.705 281.67 388.549 282.39 388.237 283.038C387.925 283.674 387.445 284.184 386.797 284.568C386.161 284.94 385.369 285.126 384.421 285.126C382.609 285.126 381.361 284.556 380.677 283.416C380.005 282.276 379.669 280.728 379.669 278.772C379.669 276.516 380.029 274.824 380.749 273.696C381.481 272.556 382.669 271.986 384.313 271.986C385.525 271.986 386.455 272.328 387.103 273.012C387.763 273.696 388.153 274.59 388.273 275.694H386.707ZM381.325 280.608C381.325 281.484 381.577 282.222 382.081 282.822C382.597 283.41 383.365 283.704 384.385 283.704C385.225 283.704 385.897 283.458 386.401 282.966C386.905 282.462 387.157 281.76 387.157 280.86C387.157 279.888 386.905 279.15 386.401 278.646C385.897 278.13 385.201 277.872 384.313 277.872C383.809 277.872 383.329 277.974 382.873 278.178C382.417 278.382 382.045 278.694 381.757 279.114C381.469 279.522 381.325 280.02 381.325 280.608Z" fill="#222222"/>
<path d="M92.0968 331.74C94.1368 330.372 95.7688 329.016 96.9928 327.672C98.2168 326.316 98.8288 325.056 98.8288 323.892C98.8288 323.172 98.6428 322.596 98.2708 322.164C97.9108 321.72 97.3228 321.498 96.5068 321.498C95.6668 321.498 95.0308 321.768 94.5988 322.308C94.1668 322.836 93.9268 323.568 93.8788 324.504H92.2588C92.3428 323.088 92.7808 322.002 93.5728 321.246C94.3648 320.478 95.3848 320.094 96.6328 320.094C97.8208 320.094 98.7628 320.412 99.4588 321.048C100.155 321.684 100.503 322.584 100.503 323.748C100.503 324.708 100.191 325.686 99.5668 326.682C98.9548 327.666 98.1808 328.584 97.2448 329.436C96.3208 330.276 95.3668 330.99 94.3828 331.578H100.827V332.928H92.0968V331.74ZM110.122 321.498L105.316 333H103.588L108.466 321.66H101.806V320.238H110.122V321.498Z" fill="#222222"/>
<path d="M137.358 331.74C139.398 330.372 141.03 329.016 142.254 327.672C143.478 326.316 144.09 325.056 144.09 323.892C144.09 323.172 143.904 322.596 143.532 322.164C143.172 321.72 142.584 321.498 141.768 321.498C140.928 321.498 140.292 321.768 139.86 322.308C139.428 322.836 139.188 323.568 139.14 324.504H137.52C137.604 323.088 138.042 322.002 138.834 321.246C139.626 320.478 140.646 320.094 141.894 320.094C143.082 320.094 144.024 320.412 144.72 321.048C145.416 321.684 145.764 322.584 145.764 323.748C145.764 324.708 145.452 325.686 144.828 326.682C144.216 327.666 143.442 328.584 142.506 329.436C141.582 330.276 140.628 330.99 139.644 331.578H146.088V332.928H137.358V331.74ZM148.093 323.298C148.093 322.674 148.261 322.104 148.597 321.588C148.933 321.072 149.431 320.664 150.091 320.364C150.751 320.064 151.537 319.914 152.449 319.914C153.361 319.914 154.141 320.064 154.789 320.364C155.449 320.664 155.947 321.072 156.283 321.588C156.619 322.104 156.787 322.674 156.787 323.298C156.787 324.006 156.595 324.618 156.211 325.134C155.827 325.65 155.245 326.016 154.465 326.232C155.305 326.46 155.959 326.856 156.427 327.42C156.895 327.984 157.129 328.68 157.129 329.508C157.129 330.708 156.703 331.65 155.851 332.334C154.999 333.018 153.865 333.36 152.449 333.36C151.033 333.36 149.899 333.018 149.047 332.334C148.195 331.65 147.769 330.708 147.769 329.508C147.769 328.68 147.997 327.984 148.453 327.42C148.921 326.856 149.575 326.46 150.415 326.232C149.635 326.016 149.053 325.65 148.669 325.134C148.285 324.618 148.093 324.006 148.093 323.298ZM149.713 323.532C149.713 324.252 149.959 324.81 150.451 325.206C150.943 325.59 151.609 325.782 152.449 325.782C153.289 325.782 153.949 325.59 154.429 325.206C154.921 324.81 155.167 324.252 155.167 323.532C155.167 322.812 154.921 322.26 154.429 321.876C153.937 321.48 153.277 321.282 152.449 321.282C151.621 321.282 150.955 321.48 150.451 321.876C149.959 322.26 149.713 322.812 149.713 323.532ZM149.371 329.418C149.371 330.234 149.647 330.87 150.199 331.326C150.751 331.77 151.501 331.992 152.449 331.992C153.385 331.992 154.129 331.764 154.681 331.308C155.233 330.852 155.509 330.222 155.509 329.418C155.509 328.602 155.221 327.984 154.645 327.564C154.069 327.144 153.337 326.934 152.449 326.934C151.549 326.934 150.811 327.144 150.235 327.564C149.659 327.984 149.371 328.602 149.371 329.418Z" fill="#222222"/>
<path d="M183.841 331.74C185.881 330.372 187.513 329.016 188.737 327.672C189.961 326.316 190.573 325.056 190.573 323.892C190.573 323.172 190.387 322.596 190.015 322.164C189.655 321.72 189.067 321.498 188.251 321.498C187.411 321.498 186.775 321.768 186.343 322.308C185.911 322.836 185.671 323.568 185.623 324.504H184.003C184.087 323.088 184.525 322.002 185.317 321.246C186.109 320.478 187.129 320.094 188.377 320.094C189.565 320.094 190.507 320.412 191.203 321.048C191.899 321.684 192.247 322.584 192.247 323.748C192.247 324.708 191.935 325.686 191.311 326.682C190.699 327.666 189.925 328.584 188.989 329.436C188.065 330.276 187.111 330.99 186.127 331.578H192.571V332.928H183.841V331.74ZM196.177 329.436C196.285 330.192 196.549 330.774 196.969 331.182C197.389 331.59 197.965 331.794 198.697 331.794C199.705 331.794 200.467 331.404 200.983 330.624C201.499 329.844 201.757 328.608 201.757 326.916C201.757 326.592 201.751 326.346 201.739 326.178C201.571 326.898 201.163 327.474 200.515 327.906C199.867 328.338 199.105 328.554 198.229 328.554C196.969 328.554 195.979 328.176 195.259 327.42C194.539 326.664 194.179 325.608 194.179 324.252C194.179 323.46 194.335 322.74 194.647 322.092C194.959 321.444 195.433 320.934 196.069 320.562C196.717 320.178 197.515 319.986 198.463 319.986C200.287 319.986 201.535 320.55 202.207 321.678C202.891 322.794 203.233 324.33 203.233 326.286C203.233 328.518 202.885 330.222 202.189 331.398C201.493 332.562 200.329 333.144 198.697 333.144C197.485 333.144 196.531 332.802 195.835 332.118C195.151 331.422 194.749 330.528 194.629 329.436H196.177ZM201.577 324.504C201.577 323.64 201.319 322.908 200.803 322.308C200.299 321.708 199.537 321.408 198.517 321.408C197.677 321.408 197.005 321.66 196.501 322.164C195.997 322.668 195.745 323.37 195.745 324.27C195.745 325.23 195.997 325.968 196.501 326.484C197.005 327 197.695 327.258 198.571 327.258C199.075 327.258 199.555 327.156 200.011 326.952C200.479 326.748 200.857 326.436 201.145 326.016C201.433 325.596 201.577 325.092 201.577 324.504Z" fill="#222222"/>
<path d="M234.554 319.968C235.37 319.968 236.072 320.112 236.66 320.4C237.248 320.688 237.692 321.084 237.992 321.588C238.292 322.092 238.442 322.662 238.442 323.298C238.442 324.09 238.208 324.756 237.74 325.296C237.284 325.836 236.612 326.16 235.724 326.268V326.376C236.648 326.616 237.368 326.988 237.884 327.492C238.412 327.996 238.676 328.692 238.676 329.58C238.676 330.624 238.328 331.476 237.632 332.136C236.936 332.796 235.934 333.126 234.626 333.126C233.318 333.126 232.256 332.79 231.44 332.118C230.636 331.434 230.162 330.438 230.018 329.13H231.638C231.746 329.922 232.046 330.552 232.538 331.02C233.042 331.488 233.72 331.722 234.572 331.722C235.376 331.722 235.994 331.518 236.426 331.11C236.858 330.69 237.074 330.15 237.074 329.49C237.074 328.698 236.762 328.098 236.138 327.69C235.526 327.27 234.65 327.06 233.51 327.06H233.078V325.692H233.51C235.718 325.692 236.822 324.954 236.822 323.478C236.822 322.83 236.618 322.314 236.21 321.93C235.802 321.546 235.238 321.354 234.518 321.354C233.798 321.354 233.192 321.564 232.7 321.984C232.208 322.392 231.92 322.998 231.836 323.802H230.234C230.318 322.602 230.732 321.666 231.476 320.994C232.232 320.31 233.258 319.968 234.554 319.968ZM240.797 326.574C240.797 328.614 241.133 330.204 241.805 331.344C242.477 332.484 243.641 333.054 245.297 333.054C246.953 333.054 248.117 332.484 248.789 331.344C249.473 330.204 249.815 328.614 249.815 326.574C249.815 324.558 249.473 322.98 248.789 321.84C248.117 320.7 246.953 320.13 245.297 320.13C243.641 320.13 242.477 320.7 241.805 321.84C241.133 322.968 240.797 324.546 240.797 326.574ZM248.195 326.574C248.195 327.618 248.117 328.494 247.961 329.202C247.817 329.898 247.535 330.456 247.115 330.876C246.695 331.296 246.089 331.506 245.297 331.506C244.517 331.506 243.917 331.296 243.497 330.876C243.077 330.456 242.789 329.898 242.633 329.202C242.489 328.494 242.417 327.618 242.417 326.574C242.417 325.542 242.489 324.678 242.633 323.982C242.789 323.286 243.077 322.734 243.497 322.326C243.917 321.906 244.517 321.696 245.297 321.696C246.089 321.696 246.695 321.906 247.115 322.326C247.535 322.734 247.817 323.286 247.961 323.982C248.117 324.678 248.195 325.542 248.195 326.574Z" fill="#222222"/>
<path d="M92.938 362.102V364.006H90.25V372H87.842V364.006H85.182V362.102H92.938ZM93.7231 361.99C93.7231 361.626 93.8538 361.327 94.1151 361.094C94.3764 360.851 94.7218 360.73 95.1511 360.73C95.5804 360.73 95.9258 360.851 96.1871 361.094C96.4484 361.327 96.5791 361.626 96.5791 361.99C96.5791 362.345 96.4484 362.643 96.1871 362.886C95.9258 363.119 95.5804 363.236 95.1511 363.236C94.7218 363.236 94.3764 363.119 94.1151 362.886C93.8538 362.643 93.7231 362.345 93.7231 361.99ZM96.3411 364.188V372H93.9471V364.188H96.3411ZM108.116 364.104C109.077 364.104 109.833 364.403 110.384 365C110.935 365.588 111.21 366.409 111.21 367.464V372H108.83V367.744C108.83 367.249 108.695 366.867 108.424 366.596C108.163 366.316 107.803 366.176 107.346 366.176C106.87 366.176 106.492 366.325 106.212 366.624C105.941 366.913 105.806 367.324 105.806 367.856V372H103.412V367.744C103.412 367.249 103.281 366.867 103.02 366.596C102.759 366.316 102.399 366.176 101.942 366.176C101.466 366.176 101.088 366.321 100.808 366.61C100.528 366.899 100.388 367.315 100.388 367.856V372H97.994V364.188H100.388V365.518C100.593 365.079 100.906 364.734 101.326 364.482C101.755 364.23 102.255 364.104 102.824 364.104C103.421 364.104 103.949 364.244 104.406 364.524C104.863 364.795 105.209 365.187 105.442 365.7C105.713 365.215 106.081 364.827 106.548 364.538C107.024 364.249 107.547 364.104 108.116 364.104ZM120.221 367.884C120.221 368.08 120.197 368.295 120.151 368.528H114.733C114.761 369.116 114.91 369.541 115.181 369.802C115.451 370.054 115.797 370.18 116.217 370.18C116.571 370.18 116.865 370.091 117.099 369.914C117.332 369.737 117.486 369.508 117.561 369.228H120.095C119.992 369.779 119.768 370.273 119.423 370.712C119.077 371.141 118.639 371.482 118.107 371.734C117.575 371.977 116.982 372.098 116.329 372.098C115.563 372.098 114.882 371.939 114.285 371.622C113.697 371.295 113.235 370.829 112.899 370.222C112.563 369.615 112.395 368.906 112.395 368.094C112.395 367.273 112.558 366.563 112.885 365.966C113.221 365.359 113.687 364.897 114.285 364.58C114.882 364.253 115.563 364.09 116.329 364.09C117.103 364.09 117.785 364.249 118.373 364.566C118.961 364.883 119.413 365.331 119.731 365.91C120.057 366.479 120.221 367.137 120.221 367.884ZM117.799 367.52C117.808 367.007 117.668 366.624 117.379 366.372C117.099 366.111 116.749 365.98 116.329 365.98C115.89 365.98 115.526 366.111 115.237 366.372C114.947 366.633 114.784 367.016 114.747 367.52H117.799Z" fill="#2974D3"/>
<rect x="202" y="349" width="86" height="36" rx="6" fill="#F6F6F6"/>
<path d="M256.621 370.408V369.192L262.413 361.64H263.981V369.144H265.645V370.408H263.981V373H262.509V370.408H256.621ZM262.605 363.416L258.157 369.144H262.605V363.416ZM266.959 367.288C266.959 369.101 267.258 370.515 267.855 371.528C268.452 372.541 269.487 373.048 270.959 373.048C272.431 373.048 273.466 372.541 274.063 371.528C274.671 370.515 274.975 369.101 274.975 367.288C274.975 365.496 274.671 364.093 274.063 363.08C273.466 362.067 272.431 361.56 270.959 361.56C269.487 361.56 268.452 362.067 267.855 363.08C267.258 364.083 266.959 365.485 266.959 367.288ZM273.535 367.288C273.535 368.216 273.466 368.995 273.327 369.624C273.199 370.243 272.948 370.739 272.575 371.112C272.202 371.485 271.663 371.672 270.959 371.672C270.266 371.672 269.732 371.485 269.359 371.112C268.986 370.739 268.73 370.243 268.591 369.624C268.463 368.995 268.399 368.216 268.399 367.288C268.399 366.371 268.463 365.603 268.591 364.984C268.73 364.365 268.986 363.875 269.359 363.512C269.732 363.139 270.266 362.952 270.959 362.952C271.663 362.952 272.202 363.139 272.575 363.512C272.948 363.875 273.199 364.365 273.327 364.984C273.466 365.603 273.535 366.371 273.535 367.288Z" fill="#222222"/>
<path d="M246.013 364.298V366.224H244.033V364.298H246.013ZM246.013 372.074V374H244.033V372.074H246.013Z" fill="#222222"/>
<path d="M215.131 367.288C215.131 369.101 215.429 370.515 216.027 371.528C216.624 372.541 217.659 373.048 219.131 373.048C220.603 373.048 221.637 372.541 222.235 371.528C222.843 370.515 223.147 369.101 223.147 367.288C223.147 365.496 222.843 364.093 222.235 363.08C221.637 362.067 220.603 361.56 219.131 361.56C217.659 361.56 216.624 362.067 216.027 363.08C215.429 364.083 215.131 365.485 215.131 367.288ZM221.707 367.288C221.707 368.216 221.637 368.995 221.499 369.624C221.371 370.243 221.12 370.739 220.747 371.112C220.373 371.485 219.835 371.672 219.131 371.672C218.437 371.672 217.904 371.485 217.531 371.112C217.157 370.739 216.901 370.243 216.763 369.624C216.635 368.995 216.571 368.216 216.571 367.288C216.571 366.371 216.635 365.603 216.763 364.984C216.901 364.365 217.157 363.875 217.531 363.512C217.904 363.139 218.437 362.952 219.131 362.952C219.835 362.952 220.373 363.139 220.747 363.512C221.12 363.875 221.371 364.365 221.499 364.984C221.637 365.603 221.707 366.371 221.707 367.288ZM226.607 369.832C226.703 370.504 226.938 371.021 227.311 371.384C227.684 371.747 228.196 371.928 228.847 371.928C229.743 371.928 230.42 371.581 230.879 370.888C231.338 370.195 231.567 369.096 231.567 367.592C231.567 367.304 231.562 367.085 231.551 366.936C231.402 367.576 231.039 368.088 230.463 368.472C229.887 368.856 229.21 369.048 228.431 369.048C227.311 369.048 226.431 368.712 225.791 368.04C225.151 367.368 224.831 366.429 224.831 365.224C224.831 364.52 224.97 363.88 225.247 363.304C225.524 362.728 225.946 362.275 226.511 361.944C227.087 361.603 227.796 361.432 228.639 361.432C230.26 361.432 231.37 361.933 231.967 362.936C232.575 363.928 232.879 365.293 232.879 367.032C232.879 369.016 232.57 370.531 231.951 371.576C231.332 372.611 230.298 373.128 228.847 373.128C227.77 373.128 226.922 372.824 226.303 372.216C225.695 371.597 225.338 370.803 225.231 369.832H226.607ZM231.407 365.448C231.407 364.68 231.178 364.029 230.719 363.496C230.271 362.963 229.594 362.696 228.687 362.696C227.94 362.696 227.343 362.92 226.895 363.368C226.447 363.816 226.223 364.44 226.223 365.24C226.223 366.093 226.447 366.749 226.895 367.208C227.343 367.667 227.956 367.896 228.735 367.896C229.183 367.896 229.61 367.805 230.015 367.624C230.431 367.443 230.767 367.165 231.023 366.792C231.279 366.419 231.407 365.971 231.407 365.448Z" fill="#222222"/>
<g clip-path="url(#clip1_1450_17162)">
<rect x="294" y="349" width="101" height="36" rx="8.91" fill="#F6F6F6"/>
<g filter="url(#filter1_dd_1450_17162)">
<rect x="296" y="351" width="48.5" height="32" rx="6.93" fill="white"/>
<path d="M316.708 369.718H312.368L311.542 372H310.17L313.824 362.312H315.266L318.906 372H317.534L316.708 369.718ZM316.344 368.724L314.538 363.74L312.732 368.724H316.344ZM330.08 362.298V372H328.806V364.258L325.712 372H324.578L321.47 364.286V372H320.196V362.298H321.722L325.166 370.446L328.554 362.298H330.08Z" fill="#222222"/>
<rect x="295.75" y="350.75" width="49" height="32.5" rx="7.18" stroke="black" stroke-opacity="0.04" stroke-width="0.5"/>
</g>
<path d="M361.336 368.024V372H360.062V362.13H363.198C364.327 362.13 365.172 362.396 365.732 362.928C366.292 363.451 366.572 364.169 366.572 365.084C366.572 366.008 366.283 366.731 365.704 367.254C365.125 367.767 364.29 368.024 363.198 368.024H361.336ZM363.086 366.96C363.861 366.96 364.416 366.797 364.752 366.47C365.097 366.143 365.27 365.681 365.27 365.084C365.27 364.468 365.097 364.001 364.752 363.684C364.416 363.357 363.861 363.194 363.086 363.194H361.336V366.96H363.086ZM377.944 362.298V372H376.67V364.258L373.576 372H372.442L369.334 364.286V372H368.06V362.298H369.586L373.03 370.446L376.418 362.298H377.944Z" fill="#222222"/>
</g>
<path d="M86 405H395V406H86V405Z" fill="#EBEBEB"/>
<path d="M92.938 423.102V425.006H90.25V433H87.842V425.006H85.182V423.102H92.938ZM93.7231 422.99C93.7231 422.626 93.8538 422.327 94.1151 422.094C94.3764 421.851 94.7218 421.73 95.1511 421.73C95.5804 421.73 95.9258 421.851 96.1871 422.094C96.4484 422.327 96.5791 422.626 96.5791 422.99C96.5791 423.345 96.4484 423.643 96.1871 423.886C95.9258 424.119 95.5804 424.236 95.1511 424.236C94.7218 424.236 94.3764 424.119 94.1151 423.886C93.8538 423.643 93.7231 423.345 93.7231 422.99ZM96.3411 425.188V433H93.9471V425.188H96.3411ZM108.116 425.104C109.077 425.104 109.833 425.403 110.384 426C110.935 426.588 111.21 427.409 111.21 428.464V433H108.83V428.744C108.83 428.249 108.695 427.867 108.424 427.596C108.163 427.316 107.803 427.176 107.346 427.176C106.87 427.176 106.492 427.325 106.212 427.624C105.941 427.913 105.806 428.324 105.806 428.856V433H103.412V428.744C103.412 428.249 103.281 427.867 103.02 427.596C102.759 427.316 102.399 427.176 101.942 427.176C101.466 427.176 101.088 427.321 100.808 427.61C100.528 427.899 100.388 428.315 100.388 428.856V433H97.994V425.188H100.388V426.518C100.593 426.079 100.906 425.734 101.326 425.482C101.755 425.23 102.255 425.104 102.824 425.104C103.421 425.104 103.949 425.244 104.406 425.524C104.863 425.795 105.209 426.187 105.442 426.7C105.713 426.215 106.081 425.827 106.548 425.538C107.024 425.249 107.547 425.104 108.116 425.104ZM120.221 428.884C120.221 429.08 120.197 429.295 120.151 429.528H114.733C114.761 430.116 114.91 430.541 115.181 430.802C115.451 431.054 115.797 431.18 116.217 431.18C116.571 431.18 116.865 431.091 117.099 430.914C117.332 430.737 117.486 430.508 117.561 430.228H120.095C119.992 430.779 119.768 431.273 119.423 431.712C119.077 432.141 118.639 432.482 118.107 432.734C117.575 432.977 116.982 433.098 116.329 433.098C115.563 433.098 114.882 432.939 114.285 432.622C113.697 432.295 113.235 431.829 112.899 431.222C112.563 430.615 112.395 429.906 112.395 429.094C112.395 428.273 112.558 427.563 112.885 426.966C113.221 426.359 113.687 425.897 114.285 425.58C114.882 425.253 115.563 425.09 116.329 425.09C117.103 425.09 117.785 425.249 118.373 425.566C118.961 425.883 119.413 426.331 119.731 426.91C120.057 427.479 120.221 428.137 120.221 428.884ZM117.799 428.52C117.808 428.007 117.668 427.624 117.379 427.372C117.099 427.111 116.749 426.98 116.329 426.98C115.89 426.98 115.526 427.111 115.237 427.372C114.947 427.633 114.784 428.016 114.747 428.52H117.799ZM126.749 431.068H131.117V433H124.089V431.18L128.387 425.02H124.145V423.102H131.089V424.922L126.749 431.068ZM136.238 425.09C137.012 425.09 137.703 425.253 138.31 425.58C138.926 425.897 139.406 426.359 139.752 426.966C140.106 427.573 140.284 428.282 140.284 429.094C140.284 429.906 140.106 430.615 139.752 431.222C139.406 431.829 138.926 432.295 138.31 432.622C137.703 432.939 137.012 433.098 136.238 433.098C135.463 433.098 134.768 432.939 134.152 432.622C133.536 432.295 133.05 431.829 132.696 431.222C132.35 430.615 132.178 429.906 132.178 429.094C132.178 428.282 132.35 427.573 132.696 426.966C133.05 426.359 133.536 425.897 134.152 425.58C134.768 425.253 135.463 425.09 136.238 425.09ZM136.238 427.162C135.78 427.162 135.393 427.33 135.076 427.666C134.768 427.993 134.614 428.469 134.614 429.094C134.614 429.719 134.768 430.195 135.076 430.522C135.393 430.849 135.78 431.012 136.238 431.012C136.695 431.012 137.078 430.849 137.386 430.522C137.694 430.195 137.848 429.719 137.848 429.094C137.848 428.469 137.694 427.993 137.386 427.666C137.078 427.33 136.695 427.162 136.238 427.162ZM146.481 425.104C147.377 425.104 148.087 425.403 148.609 426C149.141 426.597 149.407 427.419 149.407 428.464V433H147.013V428.744C147.013 428.221 146.873 427.815 146.593 427.526C146.323 427.227 145.959 427.078 145.501 427.078C145.016 427.078 144.629 427.232 144.339 427.54C144.059 427.848 143.919 428.287 143.919 428.856V433H141.525V425.188H143.919V426.616C144.143 426.149 144.475 425.781 144.913 425.51C145.361 425.239 145.884 425.104 146.481 425.104ZM158.406 428.884C158.406 429.08 158.383 429.295 158.336 429.528H152.918C152.946 430.116 153.095 430.541 153.366 430.802C153.637 431.054 153.982 431.18 154.402 431.18C154.757 431.18 155.051 431.091 155.284 430.914C155.517 430.737 155.671 430.508 155.746 430.228H158.28C158.177 430.779 157.953 431.273 157.608 431.712C157.263 432.141 156.824 432.482 156.292 432.734C155.76 432.977 155.167 433.098 154.514 433.098C153.749 433.098 153.067 432.939 152.47 432.622C151.882 432.295 151.42 431.829 151.084 431.222C150.748 430.615 150.58 429.906 150.58 429.094C150.58 428.273 150.743 427.563 151.07 426.966C151.406 426.359 151.873 425.897 152.47 425.58C153.067 425.253 153.749 425.09 154.514 425.09C155.289 425.09 155.97 425.249 156.558 425.566C157.146 425.883 157.599 426.331 157.916 426.91C158.243 427.479 158.406 428.137 158.406 428.884ZM155.984 428.52C155.993 428.007 155.853 427.624 155.564 427.372C155.284 427.111 154.934 426.98 154.514 426.98C154.075 426.98 153.711 427.111 153.422 427.372C153.133 427.633 152.969 428.016 152.932 428.52H155.984Z" fill="#2974D3"/>
<path d="M261.561 434H260.105L254.249 425.088V434H252.793V422.72H254.249L260.105 431.648V422.72H261.561V434ZM271.982 429.12C271.982 429.429 271.961 429.696 271.918 429.92H264.894C264.926 430.923 265.209 431.675 265.742 432.176C266.286 432.677 266.947 432.928 267.726 432.928C268.43 432.928 269.017 432.752 269.486 432.4C269.966 432.037 270.259 431.557 270.366 430.96H271.918C271.811 431.568 271.571 432.112 271.198 432.592C270.835 433.072 270.361 433.445 269.774 433.712C269.187 433.979 268.526 434.112 267.79 434.112C266.947 434.112 266.201 433.931 265.55 433.568C264.899 433.205 264.387 432.688 264.014 432.016C263.651 431.333 263.47 430.533 263.47 429.616C263.47 428.699 263.651 427.899 264.014 427.216C264.387 426.533 264.899 426.011 265.55 425.648C266.201 425.285 266.947 425.104 267.79 425.104C268.643 425.104 269.385 425.285 270.014 425.648C270.654 426.011 271.139 426.496 271.47 427.104C271.811 427.712 271.982 428.384 271.982 429.12ZM270.51 429.216C270.542 428.565 270.435 428.021 270.19 427.584C269.945 427.147 269.609 426.821 269.182 426.608C268.755 426.395 268.291 426.288 267.79 426.288C266.99 426.288 266.318 426.539 265.774 427.04C265.23 427.531 264.937 428.256 264.894 429.216H270.51ZM285.951 425.216L283.423 434H281.855L279.439 426.848L277.007 434H275.423L272.927 425.216H274.399L276.271 432.608L278.703 425.216H280.223L282.671 432.592L284.559 425.216H285.951ZM299.278 422.72L295.582 429.728V434H294.11V429.728L290.398 422.72H292.094L294.862 428.176L297.614 422.72H299.278ZM304.73 425.104C305.573 425.104 306.325 425.285 306.986 425.648C307.658 426.011 308.181 426.533 308.554 427.216C308.938 427.899 309.13 428.699 309.13 429.616C309.13 430.533 308.938 431.333 308.554 432.016C308.181 432.688 307.658 433.205 306.986 433.568C306.325 433.931 305.573 434.112 304.73 434.112C303.887 434.112 303.13 433.931 302.458 433.568C301.797 433.205 301.274 432.688 300.89 432.016C300.506 431.333 300.314 430.533 300.314 429.616C300.314 428.699 300.506 427.899 300.89 427.216C301.274 426.533 301.797 426.011 302.458 425.648C303.13 425.285 303.887 425.104 304.73 425.104ZM304.73 426.384C304.207 426.384 303.722 426.501 303.274 426.736C302.837 426.971 302.479 427.333 302.202 427.824C301.935 428.304 301.802 428.901 301.802 429.616C301.802 430.32 301.935 430.917 302.202 431.408C302.479 431.888 302.837 432.245 303.274 432.48C303.722 432.715 304.207 432.832 304.73 432.832C305.253 432.832 305.733 432.715 306.17 432.48C306.618 432.245 306.975 431.888 307.242 431.408C307.519 430.917 307.658 430.32 307.658 429.616C307.658 428.901 307.519 428.304 307.242 427.824C306.975 427.333 306.618 426.971 306.17 426.736C305.733 426.501 305.253 426.384 304.73 426.384ZM312.483 426.992C312.771 426.384 313.192 425.915 313.747 425.584C314.302 425.243 314.963 425.072 315.731 425.072V426.656H315.283C314.462 426.656 313.79 426.869 313.267 427.296C312.744 427.712 312.483 428.405 312.483 429.376V434H311.027V425.216H312.483V426.992ZM321.984 434L318.624 430.048V434H317.168V422.16H318.624V429.04L321.936 425.216H323.712L319.776 429.584L323.808 434H321.984ZM334.163 422.608C335.475 422.608 336.573 422.933 337.459 423.584C338.355 424.235 338.957 425.12 339.267 426.24H337.731C337.464 425.557 337.016 425.008 336.387 424.592C335.768 424.176 335.032 423.968 334.179 423.968C333.411 423.968 332.723 424.149 332.115 424.512C331.507 424.864 331.027 425.371 330.675 426.032C330.333 426.693 330.163 427.472 330.163 428.368C330.163 429.285 330.339 430.08 330.691 430.752C331.043 431.413 331.528 431.925 332.147 432.288C332.776 432.64 333.496 432.816 334.307 432.816C335 432.816 335.635 432.667 336.211 432.368C336.787 432.069 337.256 431.637 337.619 431.072C337.992 430.496 338.216 429.824 338.291 429.056H333.859V427.968H339.523V429.312C339.427 430.208 339.149 431.019 338.691 431.744C338.232 432.469 337.613 433.045 336.835 433.472C336.056 433.899 335.171 434.112 334.179 434.112C333.091 434.112 332.131 433.872 331.299 433.392C330.467 432.901 329.816 432.224 329.347 431.36C328.888 430.485 328.659 429.488 328.659 428.368C328.659 427.248 328.888 426.256 329.347 425.392C329.816 424.517 330.467 423.835 331.299 423.344C332.131 422.853 333.085 422.608 334.163 422.608ZM352.792 422.912V434H351.336V425.152L347.8 434H346.504L342.952 425.184V434H341.496V422.912H343.24L347.176 432.224L351.048 422.912H352.792ZM362.033 422.72V423.904H358.849V434H357.393V423.904H354.209V422.72H362.033ZM368.472 427.52V428.752H362.072V427.52H368.472ZM370.668 431.408V430.192L376.46 422.64H378.028V430.144H379.692V431.408H378.028V434H376.556V431.408H370.668ZM376.652 424.416L372.204 430.144H376.652V424.416Z" fill="black"/>
<path d="M395 428C394.993 427.763 394.905 427.56 394.723 427.378L389.46 422.23C389.304 422.081 389.122 422 388.898 422C388.445 422 388.094 422.352 388.094 422.805C388.094 423.021 388.181 423.224 388.337 423.38L393.072 428L388.337 432.62C388.181 432.776 388.094 432.972 388.094 433.195C388.094 433.648 388.445 434 388.898 434C389.115 434 389.304 433.919 389.46 433.77L394.723 428.616C394.912 428.44 395 428.237 395 428Z" fill="#4C4C4C"/>
</g>
<defs>
<filter id="filter0_d_1450_17162" x="57" y="17" width="366" height="454" filterUnits="userSpaceOnUse" color-interpolation-filters="sRGB">
<feFlood flood-opacity="0" result="BackgroundImageFix"/>
<feColorMatrix in="SourceAlpha" type="matrix" values="0 0 0 0 0 0 0 0 0 0 0 0 0 0 0 0 0 0 127 0" result="hardAlpha"/>
<feOffset dy="4"/>
<feGaussianBlur stdDeviation="6"/>
<feComposite in2="hardAlpha" operator="out"/>
<feColorMatrix type="matrix" values="0 0 0 0 0 0 0 0 0 0 0 0 0 0 0 0 0 0 0.05 0"/>
<feBlend mode="normal" in2="BackgroundImageFix" result="effect1_dropShadow_1450_17162"/>
<feBlend mode="normal" in="SourceGraphic" in2="effect1_dropShadow_1450_17162" result="shape"/>
</filter>
<filter id="filter1_dd_1450_17162" x="287.5" y="345.5" width="65.5" height="49" filterUnits="userSpaceOnUse" color-interpolation-filters="sRGB">
<feFlood flood-opacity="0" result="BackgroundImageFix"/>
<feColorMatrix in="SourceAlpha" type="matrix" values="0 0 0 0 0 0 0 0 0 0 0 0 0 0 0 0 0 0 127 0" result="hardAlpha"/>
<feOffset dy="3"/>
<feGaussianBlur stdDeviation="0.5"/>
<feColorMatrix type="matrix" values="0 0 0 0 0 0 0 0 0 0 0 0 0 0 0 0 0 0 0.04 0"/>
<feBlend mode="normal" in2="BackgroundImageFix" result="effect1_dropShadow_1450_17162"/>
<feColorMatrix in="SourceAlpha" type="matrix" values="0 0 0 0 0 0 0 0 0 0 0 0 0 0 0 0 0 0 127 0" result="hardAlpha"/>
<feOffset dy="3"/>
<feGaussianBlur stdDeviation="4"/>
<feColorMatrix type="matrix" values="0 0 0 0 0 0 0 0 0 0 0 0 0 0 0 0 0 0 0.12 0"/>
<feBlend mode="normal" in2="effect1_dropShadow_1450_17162" result="effect2_dropShadow_1450_17162"/>
<feBlend mode="normal" in="SourceGraphic" in2="effect2_dropShadow_1450_17162" result="shape"/>
</filter>
<clipPath id="clip0_1450_17162">
<rect width="85.6904" height="24" fill="white" transform="translate(85 43)"/>
</clipPath>
<clipPath id="clip1_1450_17162">
<rect x="294" y="349" width="101" height="36" rx="8.91" fill="white"/>
</clipPath>
</defs>
</svg>
