<svg width="24" height="24" viewBox="0 0 24 24" fill="none" xmlns="http://www.w3.org/2000/svg">
<path fill-rule="evenodd" clip-rule="evenodd" d="M5 0C2.23858 0 0 2.23858 0 5V19C0 21.7614 2.23858 24 5 24H19C21.7614 24 24 21.7614 24 19V5C24 2.23858 21.7614 0 19 0H5ZM12.0003 9.33333C10.5276 9.33333 9.33397 10.5276 9.33397 12.0003C9.33397 13.4731 10.5276 14.6673 12.0003 14.6673C13.4731 14.6673 14.6673 13.4731 14.6673 12.0003C14.6673 10.5276 13.4731 9.33333 12.0003 9.33333ZM12.0003 16.1084C9.73143 16.1084 7.89225 14.2692 7.89225 12.0003H7.89232C7.89232 9.7313 9.73143 7.89225 12.0003 7.89225C14.2692 7.89225 16.1084 9.73143 16.1084 12.0003C16.1084 14.2692 14.2692 16.1084 12.0003 16.1084ZM15.4726 8.2628C15.3672 8.10488 15.311 7.91924 15.311 7.72937C15.3113 7.47485 15.4125 7.23083 15.5925 7.05089C15.7725 6.87096 16.0166 6.76983 16.2711 6.76971H16.2715C16.4613 6.76979 16.6469 6.82617 16.8048 6.93172C16.9626 7.03727 17.0856 7.18726 17.1582 7.36271C17.2308 7.53817 17.2497 7.73121 17.2126 7.91742C17.1755 8.10363 17.084 8.27466 16.9497 8.40887C16.8153 8.54308 16.6442 8.63445 16.458 8.67141C16.2718 8.70838 16.0787 8.68929 15.9033 8.61656C15.7279 8.54383 15.5781 8.42072 15.4726 8.2628ZM7.2825 18.2372C7.56424 18.347 7.98819 18.4769 8.76819 18.5125V18.5126C9.61123 18.5514 9.86385 18.5591 12.0003 18.5591C14.1368 18.5591 14.3901 18.5514 15.2334 18.5126C16.0134 18.4771 16.4375 18.3472 16.7191 18.2374C17.0926 18.092 17.3595 17.9185 17.6393 17.6389C17.9191 17.3594 18.0923 17.0929 18.2378 16.7194C18.3469 16.4376 18.4774 16.0137 18.513 15.2337C18.5518 14.3897 18.5595 14.137 18.5595 12.0006C18.5595 9.86411 18.5518 9.61149 18.513 8.76749C18.4775 7.98749 18.3476 7.56341 18.2378 7.2818C18.0923 6.90828 17.9195 6.64139 17.6393 6.36157C17.3591 6.08175 17.0926 5.90792 16.7191 5.76314C16.4367 5.65434 16.0134 5.52345 15.2334 5.48793C14.3894 5.44953 14.1358 5.44127 12.0003 5.44127C9.86481 5.44127 9.61149 5.44902 8.76819 5.4878C7.98819 5.52326 7.56411 5.65319 7.2825 5.76301C6.90834 5.90779 6.64209 6.08123 6.36227 6.36144C6.08245 6.64164 5.90926 6.90815 5.76385 7.28167C5.65504 7.56411 5.52416 7.98736 5.48864 8.76736C5.45049 9.61136 5.44211 9.86398 5.44211 12.0004C5.44211 14.1369 5.44985 14.3902 5.48864 15.2335C5.52409 16.0135 5.65402 16.4376 5.76385 16.7192C5.90862 17.0927 6.08207 17.359 6.36227 17.6388C6.64247 17.9186 6.90898 18.0918 7.2825 18.2372ZM6.76005 4.42005C7.26829 4.22228 7.85027 4.08724 8.70195 4.04845H8.70227C9.55574 4.00902 9.82897 4 12.0013 4C14.1736 4 14.4462 4.00947 15.2993 4.04845C16.1504 4.0866 16.732 4.22228 17.2412 4.42005C17.7666 4.62428 18.2132 4.89757 18.6578 5.34284C19.1024 5.7881 19.3758 6.23401 19.5806 6.76005C19.7784 7.26829 19.9134 7.8502 19.9522 8.70195C19.991 9.55497 20 9.82769 20 12.0003C20 14.1729 19.991 14.445 19.9522 15.2987C19.914 16.1504 19.7784 16.732 19.5806 17.2406C19.3758 17.7666 19.1031 18.2132 18.6578 18.6578C18.2125 19.1024 17.7666 19.3758 17.2406 19.5806C16.732 19.7784 16.1504 19.9134 15.2987 19.9522C14.4457 19.9916 14.173 20.0006 12.0003 20.0006C9.82769 20.0006 9.55542 19.991 8.70195 19.9522C7.85027 19.9134 7.26925 19.7784 6.76005 19.5806C6.23337 19.3758 5.78804 19.1022 5.34284 18.6578C4.89764 18.2134 4.62428 17.7666 4.42005 17.2406C4.22228 16.732 4.08724 16.1504 4.04845 15.2987C4.00902 14.4457 4 14.1729 4 12.0003C4 9.82769 4.00902 9.55497 4.04845 8.70195C4.08724 7.85027 4.22228 7.26861 4.42005 6.76005C4.62428 6.23337 4.89757 5.7874 5.34284 5.34284C5.7881 4.89828 6.23401 4.62428 6.76005 4.42005Z" fill="#F2F8FF"/>
</svg>
