<svg width="179" height="46" viewBox="0 0 179 46" fill="none" xmlns="http://www.w3.org/2000/svg">
<path d="M26.5849 21.3546C26.6042 19.8522 27.0026 18.3792 27.7428 17.0724C28.483 15.7657 29.5412 14.6678 30.8187 13.8809C30.0071 12.7197 28.9365 11.764 27.6917 11.0898C26.447 10.4156 25.0625 10.0415 23.6482 9.99712C20.6313 9.67986 17.7065 11.8058 16.1691 11.8058C14.602 11.8058 12.235 10.0286 9.68606 10.0812C8.03736 10.1345 6.43057 10.6149 5.02225 11.4754C3.61394 12.3359 2.45211 13.5472 1.64999 14.9913C-1.82464 21.0184 0.767118 29.8763 4.09553 34.7482C5.7608 37.1338 7.70702 39.7986 10.2536 39.7041C12.7456 39.6006 13.6763 38.1121 16.6844 38.1121C19.6645 38.1121 20.5377 39.7041 23.136 39.644C25.81 39.6005 27.4948 37.2478 29.1016 34.8396C30.2981 33.1398 31.2188 31.2611 31.8296 29.2731C30.2761 28.6148 28.9504 27.5129 28.0177 26.1047C27.085 24.6966 26.5867 23.0446 26.5849 21.3546Z" fill="white"/>
<path d="M21.6773 6.7931C23.1353 5.03954 23.8535 2.78562 23.6796 0.51001C21.4521 0.744406 19.3945 1.81101 17.9169 3.4973C17.1944 4.32109 16.641 5.27948 16.2884 6.31766C15.9359 7.35584 15.791 8.45346 15.8621 9.54778C16.9762 9.55927 18.0784 9.31733 19.0857 8.84017C20.093 8.36302 20.9791 7.66309 21.6773 6.7931Z" fill="white"/>
<path d="M58.0855 33.6647H49.5815L47.5392 39.7063H43.9373L51.9922 17.3539H55.7345L63.7894 39.7063H60.126L58.0855 33.6647ZM50.4622 30.8768H57.2031L53.8801 21.0717H53.7871L50.4622 30.8768Z" fill="white"/>
<path d="M81.1851 31.5588C81.1851 36.6231 78.4797 39.8767 74.397 39.8767C73.3627 39.9309 72.3342 39.6923 71.4291 39.188C70.5239 38.6838 69.7789 37.9343 69.2791 37.0255H69.2018V45.0974H65.863V23.4096H69.0949V26.1201H69.1563C69.679 25.2157 70.4367 24.4702 71.3487 23.9628C72.2607 23.4555 73.2929 23.2054 74.3356 23.2391C78.4638 23.2391 81.1851 26.5086 81.1851 31.5588ZM77.7533 31.5588C77.7533 28.2594 76.0514 26.0903 73.4548 26.0903C70.9037 26.0903 69.1878 28.3051 69.1878 31.5588C69.1878 34.8424 70.9037 37.0414 73.4548 37.0414C76.0515 37.0414 77.7533 34.8881 77.7533 31.5588Z" fill="white"/>
<path d="M99.0882 31.5589C99.0882 36.6232 96.3828 39.8768 92.3 39.8768C91.2658 39.931 90.2373 39.6924 89.3321 39.1881C88.427 38.6839 87.6819 37.9344 87.1822 37.0257H87.1049V45.0975H83.7661V23.4097H86.9979V26.1202H87.0593C87.582 25.2158 88.3397 24.4703 89.2517 23.963C90.1637 23.4556 91.196 23.2055 92.2386 23.2392C96.367 23.2392 99.0882 26.5087 99.0882 31.5589ZM95.6564 31.5589C95.6564 28.2595 93.9545 26.0904 91.3579 26.0904C88.8068 26.0904 87.0909 28.3052 87.0909 31.5589C87.0909 34.8425 88.8068 37.0415 91.3579 37.0415C93.9545 37.0415 95.6564 34.8882 95.6564 31.5589H95.6564Z" fill="white"/>
<path d="M110.92 33.4784C111.168 35.695 113.317 37.1504 116.254 37.1504C119.068 37.1504 121.093 35.695 121.093 33.6963C121.093 31.9614 119.872 30.9225 116.981 30.2106L114.089 29.5127C109.992 28.5213 108.09 26.6018 108.09 23.487C108.09 19.6303 111.445 16.9813 116.209 16.9813C120.923 16.9813 124.155 19.6303 124.263 23.487H120.893C120.691 21.2563 118.851 19.9098 116.161 19.9098C113.471 19.9098 111.631 21.2721 111.631 23.2549C111.631 24.8352 112.807 25.7651 115.682 26.4769L118.14 27.0816C122.718 28.1662 124.62 30.0084 124.62 33.2779C124.62 37.4597 121.295 40.0788 116.007 40.0788C111.059 40.0788 107.718 37.5212 107.503 33.4783L110.92 33.4784Z" fill="white"/>
<path d="M131.825 19.553V23.4096H134.918V26.0586H131.825V35.0428C131.825 36.4385 132.444 37.0889 133.804 37.0889C134.171 37.0824 134.538 37.0566 134.903 37.0115V39.6447C134.291 39.7591 133.67 39.8109 133.048 39.7993C129.755 39.7993 128.471 38.5601 128.471 35.3995V26.0586H126.105V23.4096H128.47V19.553H131.825Z" fill="white"/>
<path d="M136.71 31.5588C136.71 26.4313 139.724 23.2092 144.424 23.2092C149.14 23.2092 152.141 26.4312 152.141 31.5588C152.141 36.7004 149.156 39.9084 144.424 39.9084C139.694 39.9084 136.71 36.7004 136.71 31.5588ZM148.739 31.5588C148.739 28.0414 147.13 25.9655 144.424 25.9655C141.719 25.9655 140.112 28.0573 140.112 31.5588C140.112 35.0902 141.719 37.1504 144.424 37.1504C147.13 37.1504 148.738 35.0902 148.738 31.5588H148.739Z" fill="white"/>
<path d="M154.893 23.4097H158.078V26.1835H158.155C158.37 25.3172 158.877 24.5516 159.59 24.0154C160.302 23.4792 161.177 23.2051 162.068 23.2392C162.452 23.2378 162.836 23.2797 163.211 23.364V26.4929C162.726 26.3442 162.219 26.2759 161.711 26.2907C161.226 26.271 160.743 26.3567 160.294 26.5419C159.845 26.7271 159.441 27.0074 159.111 27.3636C158.78 27.7198 158.531 28.1435 158.379 28.6055C158.227 29.0675 158.177 29.5569 158.232 30.0401V39.7063H154.893L154.893 23.4097Z" fill="white"/>
<path d="M178.605 34.9197C178.156 37.8781 175.281 39.9084 171.602 39.9084C166.87 39.9084 163.933 36.732 163.933 31.6362C163.933 26.5245 166.885 23.2092 171.461 23.2092C175.961 23.2092 178.791 26.3065 178.791 31.2477V32.3938H167.303V32.5959C167.25 33.1957 167.325 33.7999 167.523 34.3684C167.721 34.9369 168.037 35.4567 168.451 35.8933C168.865 36.3299 169.367 36.6732 169.923 36.9006C170.48 37.1279 171.078 37.2341 171.679 37.2119C172.468 37.286 173.26 37.1029 173.936 36.6899C174.613 36.2769 175.139 35.6561 175.435 34.9197L178.605 34.9197ZM167.319 30.0559H175.451C175.481 29.5166 175.399 28.977 175.211 28.4708C175.023 27.9646 174.733 27.5028 174.358 27.1145C173.983 26.7261 173.533 26.4195 173.034 26.2139C172.536 26.0083 172 25.9082 171.461 25.9198C170.917 25.9165 170.378 26.0212 169.875 26.2277C169.372 26.4342 168.915 26.7386 168.53 27.1231C168.145 27.5076 167.839 27.9648 167.632 28.4682C167.424 28.9715 167.317 29.5112 167.319 30.0559V30.0559Z" fill="white"/>
<path d="M50.0438 0.529277C50.7438 0.478951 51.4462 0.584899 52.1003 0.839477C52.7545 1.09406 53.3441 1.49092 53.8267 2.00144C54.3092 2.51197 54.6727 3.12342 54.8908 3.79171C55.1089 4.45999 55.1762 5.16845 55.088 5.86597C55.088 9.29721 53.237 11.2696 50.0438 11.2696H46.1716V0.529277H50.0438ZM47.8366 9.75065H49.8578C50.358 9.7806 50.8586 9.69844 51.323 9.51013C51.7875 9.32183 52.2043 9.03212 52.5429 8.6621C52.8816 8.29209 53.1336 7.85107 53.2807 7.37116C53.4278 6.89125 53.4662 6.38452 53.3931 5.88786C53.4609 5.39316 53.4186 4.88957 53.2692 4.41318C53.1199 3.93679 52.8672 3.49938 52.5294 3.13231C52.1915 2.76524 51.7768 2.47758 51.3149 2.28996C50.853 2.10233 50.3554 2.01938 49.8578 2.04705H47.8366V9.75065Z" fill="white"/>
<path d="M56.9687 7.21316C56.9179 6.68051 56.9787 6.14309 57.1473 5.63536C57.3159 5.12764 57.5885 4.66083 57.9477 4.26486C58.307 3.86889 58.7448 3.55251 59.2332 3.33602C59.7216 3.11952 60.2498 3.00769 60.7839 3.00769C61.318 3.00769 61.8461 3.11952 62.3345 3.33602C62.823 3.55251 63.2608 3.86889 63.62 4.26486C63.9792 4.66083 64.2519 5.12764 64.4205 5.63536C64.5891 6.14309 64.6499 6.68051 64.599 7.21316C64.6509 7.74636 64.5908 8.28452 64.4226 8.79306C64.2545 9.30161 63.982 9.76928 63.6227 10.166C63.2634 10.5628 62.8252 10.8798 62.3363 11.0968C61.8474 11.3137 61.3186 11.4258 60.7839 11.4258C60.2492 11.4258 59.7204 11.3137 59.2315 11.0968C58.7426 10.8798 58.3044 10.5628 57.9451 10.166C57.5858 9.76928 57.3133 9.30161 57.1451 8.79306C56.977 8.28452 56.9169 7.74636 56.9687 7.21316ZM62.9568 7.21316C62.9568 5.45624 62.169 4.4288 60.7865 4.4288C59.3987 4.4288 58.618 5.45624 58.618 7.21318C58.618 8.98417 59.3988 10.0037 60.7865 10.0037C62.1691 10.0037 62.9568 8.97712 62.9568 7.21316H62.9568Z" fill="white"/>
<path d="M74.7417 11.2693H73.0855L71.4135 5.29979H71.2872L69.6221 11.2693H67.9817L65.7517 3.16406H67.3711L68.8203 9.34884H68.9396L70.6029 3.16406H72.1346L73.7978 9.34884H73.9242L75.3663 3.16406H76.9629L74.7417 11.2693Z" fill="white"/>
<path d="M78.8386 3.16407H80.3756V4.45166H80.4949C80.6973 3.9892 81.0386 3.60153 81.4714 3.34268C81.9041 3.08383 82.4067 2.9667 82.9091 3.00761C83.3027 2.97796 83.6979 3.03743 84.0655 3.1816C84.4331 3.32577 84.7636 3.55096 85.0325 3.84047C85.3014 4.12999 85.5019 4.47642 85.619 4.8541C85.7362 5.23177 85.767 5.63101 85.7092 6.02224V11.2692H84.1126V6.42393C84.1126 5.1214 83.5477 4.47364 82.3669 4.47364C82.0997 4.46117 81.8329 4.50674 81.5848 4.60723C81.3368 4.70773 81.1134 4.86077 80.9299 5.05586C80.7464 5.25095 80.6072 5.48348 80.5218 5.73752C80.4365 5.99155 80.4069 6.26108 80.4352 6.52763V11.2693H78.8386L78.8386 3.16407Z" fill="white"/>
<path d="M88.2532 0H89.8498V11.2693H88.2532V0Z" fill="white"/>
<path d="M92.0693 7.21319C92.0185 6.6805 92.0793 6.14305 92.2479 5.63531C92.4166 5.12756 92.6893 4.66074 93.0485 4.26476C93.4078 3.86878 93.8457 3.5524 94.3341 3.3359C94.8225 3.1194 95.3508 3.00757 95.8849 3.00757C96.419 3.00757 96.9472 3.1194 97.4356 3.3359C97.9241 3.5524 98.362 3.86878 98.7212 4.26476C99.0805 4.66074 99.3531 5.12756 99.5218 5.63531C99.6904 6.14305 99.7513 6.6805 99.7005 7.21319C99.7522 7.74641 99.6921 8.28458 99.5239 8.79312C99.3557 9.30166 99.0831 9.76932 98.7238 10.1661C98.3644 10.5628 97.9262 10.8798 97.4373 11.0968C96.9484 11.3137 96.4196 11.4258 95.8849 11.4258C95.3501 11.4258 94.8213 11.3137 94.3324 11.0968C93.8435 10.8798 93.4053 10.5628 93.0459 10.1661C92.6866 9.76932 92.4141 9.30166 92.2459 8.79312C92.0777 8.28458 92.0175 7.74641 92.0693 7.21319ZM98.0574 7.21319C98.0574 5.45627 97.2696 4.42883 95.8871 4.42883C94.4993 4.42883 93.7186 5.45627 93.7186 7.21321C93.7186 8.9842 94.4993 10.0037 95.8871 10.0037C97.2696 10.0037 98.0574 8.97714 98.0574 7.21319H98.0574Z" fill="white"/>
<path d="M101.381 8.97707C101.381 7.51809 102.466 6.67698 104.39 6.55745L106.582 6.43089V5.73128C106.582 4.87523 106.017 4.39184 104.925 4.39184C104.034 4.39184 103.417 4.71967 103.239 5.29272H101.694C101.857 3.90053 103.164 3.00757 104.999 3.00757C107.027 3.00757 108.171 4.01917 108.171 5.73128V11.2693H106.634V10.1302H106.508C106.252 10.5388 105.892 10.8719 105.465 11.0955C105.038 11.319 104.559 11.4251 104.078 11.4028C103.738 11.4382 103.395 11.4019 103.07 11.2962C102.746 11.1906 102.447 11.0179 102.193 10.7894C101.938 10.5608 101.735 10.2815 101.595 9.96932C101.456 9.65718 101.383 9.31916 101.381 8.97707ZM106.582 8.28449V7.60686L104.606 7.73342C103.492 7.80812 102.987 8.18781 102.987 8.90235C102.987 9.63183 103.618 10.0563 104.487 10.0563C104.741 10.0822 104.998 10.0564 105.243 9.98065C105.487 9.90489 105.714 9.78065 105.909 9.61534C106.105 9.45003 106.265 9.24701 106.38 9.01838C106.496 8.78974 106.564 8.54016 106.582 8.28449Z" fill="white"/>
<path d="M110.27 7.21319C110.27 4.65207 111.584 3.02961 113.628 3.02961C114.133 3.00627 114.635 3.12759 115.074 3.3794C115.514 3.63121 115.872 4.0031 116.108 4.4516H116.228V0H117.824V11.2693H116.294V9.98872H116.168C115.914 10.4342 115.543 10.8015 115.095 11.0507C114.647 11.3 114.14 11.4218 113.628 11.4029C111.57 11.403 110.27 9.78047 110.27 7.21319ZM111.919 7.21319C111.919 8.93233 112.728 9.9668 114.08 9.9668C115.426 9.9668 116.258 8.9174 116.258 7.22023C116.258 5.53097 115.417 4.46661 114.08 4.46661C112.736 4.46661 111.919 5.50811 111.919 7.21319H111.919Z" fill="white"/>
<path d="M124.43 7.21316C124.379 6.68051 124.44 6.14309 124.609 5.63536C124.777 5.12764 125.05 4.66083 125.409 4.26486C125.768 3.86889 126.206 3.55251 126.695 3.33602C127.183 3.11952 127.711 3.00769 128.245 3.00769C128.779 3.00769 129.308 3.11952 129.796 3.33602C130.284 3.55251 130.722 3.86889 131.081 4.26486C131.441 4.66083 131.713 5.12764 131.882 5.63536C132.05 6.14309 132.111 6.68051 132.06 7.21316C132.112 7.74636 132.052 8.28452 131.884 8.79306C131.716 9.30161 131.443 9.76928 131.084 10.166C130.725 10.5628 130.287 10.8798 129.798 11.0968C129.309 11.3137 128.78 11.4258 128.245 11.4258C127.711 11.4258 127.182 11.3137 126.693 11.0968C126.204 10.8798 125.766 10.5628 125.407 10.166C125.047 9.76928 124.775 9.30161 124.607 8.79306C124.438 8.28452 124.378 7.74636 124.43 7.21316ZM130.418 7.21316C130.418 5.45624 129.63 4.4288 128.248 4.4288C126.86 4.4288 126.079 5.45624 126.079 7.21318C126.079 8.98417 126.86 10.0037 128.248 10.0037C129.63 10.0037 130.418 8.97712 130.418 7.21316Z" fill="white"/>
<path d="M134.203 3.16407H135.74V4.45166H135.859C136.061 3.9892 136.403 3.60153 136.835 3.34268C137.268 3.08383 137.771 2.9667 138.273 3.00761C138.667 2.97796 139.062 3.03743 139.43 3.1816C139.797 3.32577 140.128 3.55096 140.397 3.84047C140.665 4.12999 140.866 4.47642 140.983 4.8541C141.1 5.23177 141.131 5.63101 141.073 6.02224V11.2692H139.477V6.42393C139.477 5.1214 138.912 4.47364 137.731 4.47364C137.464 4.46117 137.197 4.50674 136.949 4.60723C136.701 4.70773 136.477 4.86077 136.294 5.05586C136.11 5.25095 135.971 5.48348 135.886 5.73752C135.8 5.99155 135.771 6.26108 135.799 6.52763V11.2693H134.203V3.16407Z" fill="white"/>
<path d="M150.095 1.14612V3.20099H151.848V4.54836H150.095V8.71612C150.095 9.56514 150.444 9.93691 151.239 9.93691C151.442 9.93626 151.645 9.92393 151.848 9.89999V11.2324C151.561 11.2838 151.27 11.3111 150.979 11.3141C149.204 11.3141 148.496 10.6884 148.496 9.12567V4.54829H147.212V3.20092H148.496V1.14612H150.095Z" fill="white"/>
<path d="M154.028 0H155.611V4.4666H155.737C155.949 3.99982 156.3 3.60996 156.742 3.35013C157.183 3.09031 157.694 2.97316 158.204 3.01465C158.596 2.9933 158.987 3.0588 159.35 3.20647C159.714 3.35415 160.04 3.58036 160.306 3.86897C160.572 4.15757 160.772 4.50147 160.89 4.87611C161.008 5.25075 161.042 5.6469 160.99 6.03632V11.2693H159.392V6.43093C159.392 5.1363 158.79 4.48064 157.662 4.48064C157.388 4.45809 157.112 4.49588 156.853 4.59138C156.595 4.68688 156.361 4.83776 156.167 5.03349C155.972 5.22922 155.824 5.46506 155.73 5.7245C155.636 5.98395 155.601 6.26074 155.625 6.53551V11.2693H154.028L154.028 0Z" fill="white"/>
<path d="M170.3 9.08092C170.083 9.82169 169.613 10.4625 168.972 10.8911C168.331 11.3198 167.56 11.5091 166.794 11.4258C166.261 11.4399 165.731 11.3376 165.242 11.1261C164.752 10.9145 164.314 10.5988 163.959 10.2007C163.603 9.8027 163.338 9.33189 163.183 8.82102C163.027 8.31014 162.984 7.77142 163.057 7.24226C162.986 6.71147 163.03 6.17159 163.185 5.65919C163.34 5.14678 163.604 4.6738 163.958 4.27227C164.311 3.87074 164.747 3.55003 165.235 3.33185C165.723 3.11368 166.253 3.00314 166.787 3.0077C169.038 3.0077 170.396 4.5485 170.396 7.09369V7.65185H164.683V7.74149C164.658 8.03893 164.696 8.33833 164.793 8.62047C164.89 8.90262 165.045 9.1613 165.248 9.37992C165.451 9.59854 165.697 9.77228 165.971 9.88999C166.245 10.0077 166.54 10.0668 166.838 10.0635C167.22 10.1094 167.607 10.0405 167.949 9.86555C168.292 9.69058 168.575 9.41744 168.763 9.08087L170.3 9.08092ZM164.683 6.46882H168.77C168.79 6.19679 168.753 5.92356 168.661 5.66666C168.57 5.40977 168.426 5.17491 168.238 4.97717C168.05 4.77942 167.824 4.62317 167.572 4.51846C167.321 4.41374 167.05 4.36288 166.778 4.36913C166.502 4.36565 166.228 4.4176 165.972 4.5219C165.716 4.6262 165.484 4.78074 165.289 4.97643C165.094 5.17211 164.939 5.40497 164.836 5.66128C164.732 5.91759 164.68 6.19217 164.683 6.46882H164.683Z" fill="white"/>
</svg>
