<svg width="80" height="80" viewBox="0 0 80 80" fill="none" xmlns="http://www.w3.org/2000/svg">
<path d="M60.0002 33.3333C66.4435 33.3333 71.6668 28.11 71.6668 21.6667C71.6668 15.2233 66.4435 10 60.0002 10C53.5568 10 48.3335 15.2233 48.3335 21.6667C48.3335 28.11 53.5568 33.3333 60.0002 33.3333Z" stroke="#42C9B8" stroke-width="4" stroke-linecap="round" stroke-linejoin="round"/>
<path d="M60 10V5" stroke="#42C9B8" stroke-width="4" stroke-linecap="round" stroke-linejoin="round"/>
<path d="M68.25 13.4167L71.785 9.88171" stroke="#42C9B8" stroke-width="4" stroke-linecap="round" stroke-linejoin="round"/>
<path d="M71.667 21.6666H76.667" stroke="#42C9B8" stroke-width="4" stroke-linecap="round" stroke-linejoin="round"/>
<path d="M68.25 29.9166L71.785 33.4516" stroke="#42C9B8" stroke-width="4" stroke-linecap="round" stroke-linejoin="round"/>
<path d="M60 33.3334V38.3334" stroke="#42C9B8" stroke-width="4" stroke-linecap="round" stroke-linejoin="round"/>
<path d="M51.7503 29.9166L48.2153 33.4516" stroke="#42C9B8" stroke-width="4" stroke-linecap="round" stroke-linejoin="round"/>
<path d="M48.3335 21.6666H43.3335" stroke="#42C9B8" stroke-width="4" stroke-linecap="round" stroke-linejoin="round"/>
<path d="M51.7503 13.4167L48.2153 9.88171" stroke="#42C9B8" stroke-width="4" stroke-linecap="round" stroke-linejoin="round"/>
<path d="M60.0002 23.3333C60.9206 23.3333 61.6668 22.5871 61.6668 21.6667C61.6668 20.7462 60.9206 20 60.0002 20C59.0797 20 58.3335 20.7462 58.3335 21.6667C58.3335 22.5871 59.0797 23.3333 60.0002 23.3333Z" stroke="#42C9B8" stroke-width="4" stroke-linecap="round" stroke-linejoin="round"/>
<path d="M36.8585 8.44995C18.0118 9.75662 3.3335 22.6933 3.3335 38.3333C3.3335 54.8333 19.6668 68.3333 40.0002 68.3333C43.4745 68.2838 46.9356 67.893 50.3335 67.1666L70.0002 75L68.0002 57.6666C72.244 53.6986 75.1261 48.4914 76.2352 42.7883" stroke="#2974D3" stroke-width="4" stroke-linecap="round" stroke-linejoin="round"/>
</svg>
