<svg width="73" height="78" viewBox="0 0 73 78" fill="none" xmlns="http://www.w3.org/2000/svg">
<path d="M27.1665 7.16675C27.1665 5.84067 27.6933 4.5689 28.631 3.63121C29.5687 2.69353 30.8404 2.16675 32.1665 2.16675H65.4998C66.8259 2.16675 68.0977 2.69353 69.0354 3.63121C69.973 4.5689 70.4998 5.84067 70.4998 7.16675V27.1667C70.4998 28.4928 69.973 29.7646 69.0354 30.7023C68.0977 31.64 66.8259 32.1667 65.4998 32.1667H38.8332L27.1665 40.5001V7.16675Z" stroke="#42C9B8" stroke-width="4" stroke-linecap="round" stroke-linejoin="round"/>
<path d="M47.1665 22.1667H37.1665" stroke="#42C9B8" stroke-width="4" stroke-linecap="round" stroke-linejoin="round"/>
<path d="M60.4998 12.1667H37.1665" stroke="#42C9B8" stroke-width="4" stroke-linecap="round" stroke-linejoin="round"/>
<path d="M18.8332 8.8335H8.83317C7.06506 8.8335 5.36937 9.53587 4.11913 10.7861C2.86888 12.0364 2.1665 13.7321 2.1665 15.5002V68.8335C2.1665 70.6016 2.86888 72.2973 4.11913 73.5475C5.36937 74.7978 7.06506 75.5002 8.83317 75.5002H40.4998C42.2679 75.5002 43.9636 74.7978 45.2139 73.5475C46.4641 72.2973 47.1665 70.6016 47.1665 68.8335V40.5002" stroke="#2974D3" stroke-width="4" stroke-linecap="round" stroke-linejoin="round"/>
<path d="M2.1665 18.8335H18.8332" stroke="#2974D3" stroke-width="4" stroke-linecap="round" stroke-linejoin="round"/>
<path d="M2.1665 63.8335H47.1665" stroke="#2974D3" stroke-width="4" stroke-linecap="round" stroke-linejoin="round"/>
</svg>
