<svg width="40" height="40" viewBox="0 0 40 40" fill="none" xmlns="http://www.w3.org/2000/svg">
<g clip-path="url(#clip0_1763_18574)">
<path d="M20 11.6667V20.0001L26.6667 26.6667" stroke="white" stroke-width="2" stroke-linecap="round" stroke-linejoin="round"/>
<path d="M4.94352 1.8833L3.72852 11.545L13.2152 8.90163" stroke="white" stroke-width="2" stroke-linecap="round" stroke-linejoin="round"/>
<path d="M3.72841 11.545C5.79374 7.5663 9.24523 4.48219 13.4303 2.87577C17.6154 1.26935 22.2441 1.25197 26.4411 2.82691C30.6381 4.40185 34.1127 7.45995 36.2078 11.423C38.303 15.3861 38.8735 19.9795 37.8115 24.3347C36.7496 28.6899 34.1287 32.5051 30.4445 35.0589C26.7602 37.6127 22.268 38.7282 17.8171 38.1944C13.3662 37.6607 9.26506 35.5146 6.28916 32.1621C3.31326 28.8095 1.66882 24.4828 1.66675 20" stroke="white" stroke-width="2" stroke-linecap="round" stroke-linejoin="round"/>
</g>
<defs>
<clipPath id="clip0_1763_18574">
<rect width="40" height="40" fill="white"/>
</clipPath>
</defs>
</svg>
