<svg width="80" height="80" viewBox="0 0 80 80" fill="none" xmlns="http://www.w3.org/2000/svg">
<path d="M53.333 6.66663C58.6373 6.66663 63.7244 8.77376 67.4751 12.5245C71.2259 16.2752 73.333 21.3623 73.333 26.6666" stroke="#42C9B8" stroke-width="4" stroke-linecap="round" stroke-linejoin="round"/>
<path d="M26.6665 73.3334C21.3622 73.3334 16.2751 71.2262 12.5244 67.4755C8.77364 63.7248 6.6665 58.6377 6.6665 53.3334" stroke="#42C9B8" stroke-width="4" stroke-linecap="round" stroke-linejoin="round"/>
<path d="M71.3863 50.8883L50.8863 71.3883C50.2695 72.0054 49.5372 72.4949 48.7312 72.8289C47.9252 73.1629 47.0612 73.3348 46.1888 73.3348C45.3163 73.3348 44.4524 73.1629 43.6464 72.8289C42.8404 72.4949 42.108 72.0054 41.4913 71.3883L8.61294 38.5C7.99586 37.8832 7.50635 37.1509 7.17238 36.3449C6.8384 35.5389 6.6665 34.675 6.6665 33.8025C6.6665 32.93 6.8384 32.0661 7.17238 31.2601C7.50635 30.4541 7.99586 29.7218 8.61294 29.105L29.1129 8.605C29.7297 7.98793 30.462 7.49842 31.268 7.16444C32.0741 6.83047 32.938 6.65857 33.8104 6.65857C34.6829 6.65857 35.5468 6.83047 36.3528 7.16444C37.1588 7.49842 37.8912 7.98793 38.5079 8.605L71.3879 41.5C72.0043 42.1165 72.4932 42.8485 72.8267 43.6539C73.1602 44.4594 73.3317 45.3227 73.3316 46.1945C73.3314 47.0663 73.1596 47.9295 72.8258 48.7349C72.492 49.5403 72.0029 50.272 71.3863 50.8883Z" stroke="#2974D3" stroke-width="4" stroke-linecap="round" stroke-linejoin="round"/>
<path d="M27.833 25.8334C27.833 26.9379 26.9376 27.8334 25.833 27.8334C24.7284 27.8334 23.833 26.9379 23.833 25.8334C23.833 24.7288 24.7284 23.8334 25.833 23.8334C26.9376 23.8334 27.833 24.7288 27.833 25.8334Z" fill="#2974D3" stroke="#2974D3"/>
</svg>
