<svg width="13" height="19" viewBox="0 0 13 19" fill="none" xmlns="http://www.w3.org/2000/svg">
<path d="M6.98238 0.287999C8.16638 0.287999 9.18238 0.495999 10.0304 0.912C10.8784 1.312 11.5184 1.872 11.9504 2.592C12.3984 3.296 12.6224 4.096 12.6224 4.992C12.6224 6.096 12.3344 6.984 11.7584 7.656C11.1984 8.328 10.4944 8.752 9.64638 8.928V9.048C11.8384 9.752 12.9344 11.12 12.9344 13.152C12.9344 14.128 12.7104 15 12.2624 15.768C11.8144 16.52 11.1584 17.112 10.2944 17.544C9.44638 17.96 8.42238 18.168 7.22238 18.168C5.27038 18.168 3.71838 17.688 2.56638 16.728C1.43038 15.768 0.814375 14.304 0.718375 12.336H4.72638C4.75838 13.088 4.96638 13.68 5.35038 14.112C5.73438 14.544 6.29438 14.76 7.03038 14.76C7.62238 14.76 8.08638 14.584 8.42238 14.232C8.77438 13.88 8.95038 13.424 8.95038 12.864C8.95038 11.472 7.94238 10.776 5.92638 10.776H5.15838V7.44H5.90237C7.71038 7.472 8.61438 6.824 8.61438 5.496C8.61438 4.92 8.45438 4.48 8.13438 4.176C7.83038 3.856 7.41438 3.696 6.88638 3.696C6.31038 3.696 5.85438 3.896 5.51838 4.296C5.18238 4.68 4.99038 5.2 4.94238 5.856H0.934375C1.01438 4.064 1.57438 2.688 2.61438 1.728C3.65438 0.767999 5.11038 0.287999 6.98238 0.287999Z" fill="#42C9B8"/>
</svg>
