<svg width="80" height="80" viewBox="0 0 80 80" fill="none" xmlns="http://www.w3.org/2000/svg">
<path d="M40.0002 76.6667C32.7482 76.6667 25.6591 74.5163 19.6293 70.4873C13.5995 66.4583 8.89981 60.7317 6.1246 54.0318C3.34938 47.3318 2.62326 39.9594 4.03805 32.8467C5.45284 25.7341 8.94501 19.2007 14.0729 14.0728C19.2009 8.94488 25.7342 5.45272 32.8469 4.03793C39.9595 2.62314 47.3319 3.34926 54.0319 6.12447C60.7319 8.89969 66.4584 13.5993 70.4874 19.6291C74.5164 25.659 76.6668 32.7481 76.6668 40.0001" stroke="#2974D3" stroke-width="4" stroke-linecap="round" stroke-linejoin="round"/>
<path d="M53.3335 75H76.6668" stroke="#42C9B8" stroke-width="4" stroke-linecap="round" stroke-linejoin="round"/>
<path d="M53.3335 63.3334H76.6668" stroke="#42C9B8" stroke-width="4" stroke-linecap="round" stroke-linejoin="round"/>
<path d="M53.3335 51.6667H76.6668" stroke="#42C9B8" stroke-width="4" stroke-linecap="round" stroke-linejoin="round"/>
<path d="M30 26.6667L53.3333 40.0001L30 53.3334V26.6667Z" stroke="#42C9B8" stroke-width="4" stroke-linecap="round" stroke-linejoin="round"/>
</svg>
