<svg width="40" height="40" viewBox="0 0 40 40" fill="none" xmlns="http://www.w3.org/2000/svg">
<path d="M11.6667 19.1667C12.5871 19.1667 13.3333 18.4205 13.3333 17.5C13.3333 16.5796 12.5871 15.8334 11.6667 15.8334C10.7462 15.8334 10 16.5796 10 17.5C10 18.4205 10.7462 19.1667 11.6667 19.1667Z" stroke="white" stroke-width="2" stroke-linecap="round" stroke-linejoin="round"/>
<path d="M20 37.5C29.665 37.5 37.5 29.665 37.5 20C37.5 10.335 29.665 2.5 20 2.5C10.335 2.5 2.5 10.335 2.5 20C2.5 29.665 10.335 37.5 20 37.5Z" stroke="white" stroke-width="2" stroke-linecap="round" stroke-linejoin="round"/>
<path d="M24.1667 17.5C25.1069 17.023 26.1712 16.8471 27.2149 16.9962C28.2586 17.1453 29.2311 17.6122 30.0001 18.3334" stroke="white" stroke-width="2" stroke-linecap="round" stroke-linejoin="round"/>
<path d="M20.0001 32.5C22.2102 32.5 24.3298 31.622 25.8926 30.0592C27.4554 28.4964 28.3334 26.3768 28.3334 24.1666H11.6667C11.6667 26.3768 12.5447 28.4964 14.1075 30.0592C15.6703 31.622 17.7899 32.5 20.0001 32.5V32.5Z" stroke="white" stroke-width="2" stroke-linecap="round" stroke-linejoin="round"/>
<path d="M12.3333 17.5C12.3333 17.8682 12.0349 18.1667 11.6667 18.1667C11.2985 18.1667 11 17.8682 11 17.5C11 17.1319 11.2985 16.8334 11.6667 16.8334C12.0349 16.8334 12.3333 17.1319 12.3333 17.5Z" fill="white" stroke="white" stroke-width="2"/>
</svg>
