<svg width="96" height="96" viewBox="0 0 96 96" fill="none" xmlns="http://www.w3.org/2000/svg">
<path d="M49.9997 40.0176C49.9984 42.9901 49.4542 45.8344 48.4638 48.4625C45.8369 49.4529 42.9901 49.9972 40.0163 50.0009H39.9824C37.0112 49.9972 34.1643 49.4542 31.5375 48.4638C30.5471 45.8369 30.0016 42.9901 30.0003 40.0176V39.9824C30.0016 37.0112 30.5458 34.1643 31.535 31.5387C34.1618 30.5471 37.0099 30.0016 39.9824 30.0003H40.0163C42.9901 30.0016 45.8369 30.5471 48.4638 31.5387C49.4542 34.1643 49.9984 37.0112 49.9997 39.9824V40.0176ZM79.4445 33.3335H56.0955L72.6046 16.8233C71.3075 15.0008 69.8608 13.2914 68.2834 11.7141V11.7128C66.706 10.1367 64.9967 8.69254 63.1755 7.39544L46.6652 23.9057V0.556795C44.5046 0.193559 42.285 0.00125687 40.0201 0H39.9786C37.7137 0.00125687 35.4954 0.193559 33.3335 0.556795V23.9057L16.8233 7.39544C15.0008 8.69254 13.2927 10.1379 11.7178 11.7153L11.709 11.7216C10.1342 13.2965 8.69128 15.0033 7.39419 16.8233L23.9057 33.3335H0.556795C0.556795 33.3335 0 37.7188 0 39.9862V40.0138C0 42.2812 0.192302 44.5034 0.556795 46.6665H23.9057L7.39419 63.1767C9.99089 66.8204 13.1796 70.0104 16.8233 72.6058L33.3335 56.0943V79.4445C35.4941 79.8064 37.71 79.9975 39.9711 80H40.0277C42.29 79.9975 44.5084 79.8064 46.6652 79.4445V56.0943L63.1767 72.6058C64.998 71.3087 66.706 69.8633 68.2834 68.2872L68.2872 68.2834C69.8621 66.706 71.3087 64.9967 72.6046 63.1767L56.093 46.6665H79.4445C79.8077 44.5071 79.9975 42.2913 80 40.0289V39.9711C79.9975 37.7087 79.8077 35.4929 79.4445 33.3335Z" fill="#FF4A00"/>
</svg>
