<svg width="80" height="80" viewBox="0 0 80 80" fill="none" xmlns="http://www.w3.org/2000/svg">
<path d="M10.625 28.4325C8.295 25.8775 6.875 22.48 6.875 18.75C6.875 10.8112 13.3113 4.375 21.25 4.375C29.1887 4.375 35.625 10.8112 35.625 18.75C35.625 22.48 34.205 25.8775 31.875 28.4325" stroke="#42C9B8" stroke-width="4" stroke-linecap="round" stroke-linejoin="round"/>
<path d="M60.625 33.125C68.9093 33.125 75.625 26.4093 75.625 18.125C75.625 9.84073 68.9093 3.125 60.625 3.125C52.3407 3.125 45.625 9.84073 45.625 18.125C45.625 26.4093 52.3407 33.125 60.625 33.125Z" stroke="#2974D3" stroke-width="4" stroke-linecap="round" stroke-linejoin="round"/>
<path d="M60.625 11.875V18.125H66.875" stroke="#2974D3" stroke-width="4" stroke-linecap="round" stroke-linejoin="round"/>
<path d="M16.875 46.875V54.375" stroke="#2974D3" stroke-width="4" stroke-linecap="round" stroke-linejoin="round"/>
<path d="M25.625 44.375V41.25C25.625 38.8338 27.5838 36.875 30 36.875C32.4162 36.875 34.375 38.8338 34.375 41.25V44.375" stroke="#2974D3" stroke-width="4" stroke-linecap="round" stroke-linejoin="round"/>
<path d="M34.375 45.625V43.75C34.375 41.3338 36.3338 39.375 38.75 39.375C41.1662 39.375 43.125 41.3338 43.125 43.75V46.875" stroke="#2974D3" stroke-width="4" stroke-linecap="round" stroke-linejoin="round"/>
<path d="M43.125 46.25C43.125 43.8338 45.0838 41.875 47.5 41.875C49.8088 41.875 51.5825 43.92 51.2563 46.2063L46.875 76.875H16.875C16.875 72.0838 8.125 65.2087 8.125 59.375V50.625C8.125 48.5538 9.80375 46.875 11.875 46.875H16.875V21.25C16.875 18.8338 18.8338 16.875 21.25 16.875C23.6663 16.875 25.625 18.8338 25.625 21.25V43.125" stroke="#2974D3" stroke-width="4" stroke-linecap="round" stroke-linejoin="round"/>
</svg>
