<svg width="40" height="40" viewBox="0 0 40 40" fill="none" xmlns="http://www.w3.org/2000/svg">
<g clip-path="url(#clip0_1763_18474)">
<path d="M7.50008 10.8334C5.65925 10.8334 4.16675 9.34091 4.16675 7.50008C4.16675 5.65925 5.65925 4.16675 7.50008 4.16675C9.34091 4.16675 10.8334 5.65925 10.8334 7.50008C10.8334 9.34091 9.34091 10.8334 7.50008 10.8334Z" stroke="white" stroke-width="2" stroke-linecap="round" stroke-linejoin="round"/>
<path d="M10.0001 35.8333H5.00008L4.16675 26.6667L1.66675 25.8333V18.3333C1.66675 16.4925 3.15925 15 5.00008 15H10.0001C11.2117 15 12.2726 15.6475 12.8559 16.6142" stroke="white" stroke-width="2" stroke-linecap="round" stroke-linejoin="round"/>
<path d="M32.5001 10.8334C34.3409 10.8334 35.8334 9.34091 35.8334 7.50008C35.8334 5.65925 34.3409 4.16675 32.5001 4.16675C30.6592 4.16675 29.1667 5.65925 29.1667 7.50008C29.1667 9.34091 30.6592 10.8334 32.5001 10.8334Z" stroke="white" stroke-width="2" stroke-linecap="round" stroke-linejoin="round"/>
<path d="M30.0001 35.8333H35.0001L35.8335 26.6667L38.3335 25.8333V18.3333C38.3335 16.4925 36.841 15 35.0001 15H30.0001C28.7885 15 27.7276 15.6475 27.1443 16.6142" stroke="white" stroke-width="2" stroke-linecap="round" stroke-linejoin="round"/>
<path d="M20 11.6667C17.2383 11.6667 15 9.42841 15 6.66675C15 3.90508 17.2383 1.66675 20 1.66675C22.7617 1.66675 25 3.90508 25 6.66675C25 9.42841 22.7617 11.6667 20 11.6667Z" stroke="white" stroke-width="2" stroke-linecap="round" stroke-linejoin="round"/>
<path d="M24.1667 38.3335H15.8334L15.0001 28.3335L11.6667 27.5002V19.1668C11.6667 17.326 13.1592 15.8335 15.0001 15.8335H25.0001C26.8409 15.8335 28.3334 17.326 28.3334 19.1668V27.5002L25.0001 28.3335L24.1667 38.3335Z" stroke="white" stroke-width="2" stroke-linecap="round" stroke-linejoin="round"/>
</g>
<defs>
<clipPath id="clip0_1763_18474">
<rect width="40" height="40" fill="white"/>
</clipPath>
</defs>
</svg>
