<svg width="13" height="18" viewBox="0 0 13 18" fill="none" xmlns="http://www.w3.org/2000/svg">
<path d="M0.019125 14.736C5.10713 11.104 7.65113 8.216 7.65113 6.072C7.65113 4.76 7.08313 4.104 5.94713 4.104C5.30713 4.104 4.83513 4.328 4.53113 4.776C4.24313 5.224 4.08313 5.92 4.05113 6.864H0.043125C0.139125 4.8 0.763125 3.248 1.91513 2.208C3.06713 1.168 4.52313 0.647999 6.28313 0.647999C8.12313 0.647999 9.50713 1.112 10.4351 2.04C11.3791 2.968 11.8511 4.176 11.8511 5.664C11.8511 7.312 11.2191 8.928 9.95513 10.512C8.69113 12.08 7.17913 13.408 5.41913 14.496H12.1151V17.808H0.019125V14.736Z" fill="#42C9B8"/>
</svg>
