<svg width="24" height="24" viewBox="0 0 24 24" fill="none" xmlns="http://www.w3.org/2000/svg">
<path fill-rule="evenodd" clip-rule="evenodd" d="M5 0C2.23858 0 0 2.23858 0 5V19C0 21.7614 2.23858 24 5 24H19C21.7614 24 24 21.7614 24 19V5C24 2.23858 21.7614 0 19 0H5ZM17.536 10.0981C17.536 13.9201 14.626 18.3301 9.304 18.3301C7.672 18.3301 6.148 17.8501 4.882 17.0221C5.11 17.0521 5.338 17.0641 5.572 17.0641C6.928 17.0641 8.176 16.6021 9.166 15.8281C7.9 15.8041 6.832 14.9701 6.466 13.8181C6.646 13.8541 6.826 13.8721 7.012 13.8721C7.276 13.8721 7.534 13.8361 7.774 13.7701C6.448 13.5001 5.452 12.3361 5.452 10.9321V10.8961C5.842 11.1121 6.286 11.2441 6.76 11.2561C5.98 10.7401 5.47 9.85212 5.47 8.85012C5.47 8.32212 5.614 7.82412 5.86 7.39812C7.288 9.15012 9.418 10.3021 11.824 10.4221C11.77 10.2121 11.746 9.99012 11.746 9.76212C11.746 8.16612 13.042 6.87012 14.638 6.87012C15.472 6.87012 16.222 7.21812 16.75 7.78212C17.41 7.65012 18.028 7.41012 18.586 7.08012C18.37 7.75812 17.914 8.32212 17.314 8.68212C17.902 8.61012 18.46 8.45412 18.976 8.22612C18.586 8.80812 18.094 9.31812 17.53 9.72612C17.536 9.84612 17.536 9.97212 17.536 10.0981Z" fill="#F2F8FF"/>
</svg>
